<svg xmlns="http://www.w3.org/2000/svg">
  <symbol id="icon-question-mark" width="100%" viewBox="0 0 20 20" preserveAspectRatio="xMidYMid meet">
    <path d="M 9.9804688 0 A 10 10 0 0 0 0 10 A 10 10 0 0 0 10 20 A 10 10 0 0 0 20 10 A 10 10 0 0 0 10 0 A 10 10 0 0 0 9.9804688 0 z M 10.017578 3.0273438 C 11.124978 3.0273438 11.986263 3.3261681 12.601562 3.9238281 C 13.222663 4.5156181 13.533203 5.3300775 13.533203 6.3671875 C 13.533203 7.3925775 13.058575 8.4023475 12.109375 9.3984375 L 11.152344 10.347656 C 10.724544 10.822256 10.509766 11.505884 10.509766 12.396484 L 8.8847656 12.396484 C 8.8964856 11.699184 8.9746138 11.148441 9.1210938 10.744141 C 9.2675838 10.339841 9.5663881 9.8906275 10.017578 9.3984375 L 11.167969 8.2128906 C 11.660169 7.6562506 11.90625 7.0585919 11.90625 6.4199219 C 11.90625 5.8046919 11.746128 5.3242156 11.423828 4.9785156 C 11.101628 4.6269456 10.632778 4.4511719 10.017578 4.4511719 C 9.4198981 4.4511719 8.9394519 4.6093812 8.5761719 4.9257812 C 8.2128919 5.2421913 8.03125 5.6679619 8.03125 6.2011719 L 6.4042969 6.2011719 C 6.4160169 5.2519519 6.7539056 4.48633 7.4160156 3.90625 C 8.0839756 3.32031 8.9511481 3.0273438 10.017578 3.0273438 z M 9.7714844 14.251953 C 10.087904 14.251953 10.328087 14.341837 10.492188 14.523438 C 10.656187 14.699237 10.738281 14.917941 10.738281 15.181641 C 10.738281 15.445341 10.656187 15.665997 10.492188 15.841797 C 10.328087 16.011697 10.087904 16.097656 9.7714844 16.097656 C 9.4550844 16.097656 9.2148413 16.011697 9.0507812 15.841797 C 8.8925813 15.665997 8.8144531 15.445341 8.8144531 15.181641 C 8.8144531 14.917941 8.8925813 14.699237 9.0507812 14.523438 C 9.2148413 14.341837 9.4550844 14.251953 9.7714844 14.251953 z"/>
  </symbol>
  <symbol id="icon-star" width="100%" viewBox="0 0 20 20" preserveAspectRatio="xMidYMid meet">
    <path d="M9.99 0C4.47 0 0 4.48 0 10C0 15.52 4.47 20 9.99 20C15.52 20 20 15.52 20 10C20 4.48 15.52 0 9.99 0ZM14.23 16L10 13.45L5.77 16L6.89 11.19L3.16 7.96L8.08 7.54L10 3L11.92 7.53L16.84 7.95L13.11 11.18L14.23 16Z"/>
  </symbol>
  <symbol id="icon-gear" width="100%" viewBox="0 0 20 20" preserveAspectRatio="xMidYMid meet">
    <path d="M 9.9804688 0 A 10 10 0 0 0 0 10 A 10 10 0 0 0 10 20 A 10 10 0 0 0 20 10 A 10 10 0 0 0 10 0 A 10 10 0 0 0 9.9804688 0 z M 8.7089844 3.5996094 L 11.269531 3.5996094 C 11.429531 3.5996094 11.563891 3.7110937 11.587891 3.8710938 L 11.828125 5.5683594 C 12.220125 5.7283594 12.572203 5.9354062 12.908203 6.1914062 L 14.5 5.5527344 C 14.644 5.5047344 14.812578 5.5513125 14.892578 5.6953125 L 16.171875 7.9121094 C 16.243875 8.0481094 16.211797 8.2243125 16.091797 8.3203125 L 14.740234 9.3769531 C 14.772234 9.5769531 14.789062 9.78401 14.789062 10 C 14.789062 10.216 14.772047 10.423047 14.748047 10.623047 L 16.083984 11.679688 C 16.211984 11.775687 16.244063 11.943891 16.164062 12.087891 L 14.884766 14.304688 C 14.804766 14.448687 14.636188 14.503266 14.492188 14.447266 L 12.900391 13.808594 C 12.572391 14.056594 12.212312 14.271641 11.820312 14.431641 L 11.580078 16.128906 C 11.564078 16.288906 11.429531 16.400391 11.269531 16.400391 L 8.7089844 16.400391 C 8.5489844 16.400391 8.4206719 16.288906 8.3886719 16.128906 L 8.1484375 14.431641 C 7.7564375 14.271641 7.4043594 14.064594 7.0683594 13.808594 L 5.4765625 14.447266 C 5.3325625 14.495266 5.1639844 14.448688 5.0839844 14.304688 L 3.8046875 12.087891 C 3.7326875 11.951891 3.7647656 11.775688 3.8847656 11.679688 L 5.2363281 10.623047 C 5.2043281 10.423047 5.1894531 10.208 5.1894531 10 C 5.1894531 9.79201 5.2121406 9.5769531 5.2441406 9.3769531 L 3.8925781 8.3203125 C 3.7645781 8.2243125 3.7325 8.0561094 3.8125 7.9121094 L 5.0917969 5.6953125 C 5.1717969 5.5513125 5.340375 5.4967344 5.484375 5.5527344 L 7.0761719 6.1914062 C 7.4041719 5.9434062 7.76425 5.7283594 8.15625 5.5683594 L 8.3964844 3.8710938 C 8.4204844 3.7110937 8.5489844 3.5996094 8.7089844 3.5996094 z M 9.9882812 7.5996094 C 8.6682812 7.5996094 7.5878906 8.68001 7.5878906 10 C 7.5878906 11.32 8.6682812 12.400391 9.9882812 12.400391 C 11.308311 12.400391 12.388672 11.32 12.388672 10 C 12.388672 8.68001 11.308311 7.5996094 9.9882812 7.5996094 z"/>
  </symbol>
</svg>
