<svg viewBox="0 0 496 496" xmlns="http://www.w3.org/2000/svg">
  <g transform="translate(48)">
    <path d="m152 96h-16v16h16c8.824 0 16 7.176 16 16h16c0-17.648-14.352-32-32-32z"/>
    <path d="m248 112h16v-16h-16c-17.648 0-32 14.352-32 32h16c0-8.824 7.176-16 16-16z"/>
    <path d="m408 192c-39.704 0-72 32.296-72 72v25.208c0 25.264-14.92 48.216-38.008 58.48l-18.72 8.32c-1.968-18.52-7.984-36.776-13.904-54.544-3.448-10.344-7.016-21.04-9.608-31.408-5.48-21.912-14.056-62.744-15.64-70.344 49.576-23.152 55.184-87.856 55.808-101.27 17.824-28.2 44.872-75.712 36.12-91.68-2.376-4.288-6.76-6.76-12.048-6.76-53.128 0-80.6 25.88-90.504 37.92-6.352-2.632-16.808-5.92-29.496-5.92s-23.144 3.288-29.496 5.92c-9.904-12.04-37.376-37.92-90.504-37.92-5.288 0-9.672 2.472-12.04 6.768-8.76 15.968 18.296 63.472 36.12 91.68 0.616 13.416 6.232 78.12 55.808 101.27-1.584 7.6-10.168 48.424-15.64 70.344-2.592 10.368-6.168 21.064-9.608 31.408-7.152 21.456-14.528 43.64-14.616 66.136-6.96 0.232-16.48 1.944-24.688 8.672-10.176 8.328-15.336 21.696-15.336 39.72 0 15.144 5.584 29.984 10.424 40h-6.424c-11.032 0-20 8.968-20 20s8.968 20 20 20h232c11.032 0 20-8.968 20-20s-8.968-20-20-20h-6.424c4.84-10.016 10.424-24.856 10.424-40 0-1.392-0.088-2.704-0.152-4.04 40.208-31.672 64.152-80.672 64.152-131.96v-16c0-13.232 10.768-24 24-24s24-10.768 24-24-10.768-24-24-24zm-324 288.01c-2.2-8e-3 -4-1.808-4-4.008s1.8-4 4-4h34.944l-8.288-12.44c-0.152-0.216-14.656-22.232-14.656-43.56 0-12.936 3.16-22.12 9.384-27.28 4.664-3.864 10.392-4.944 14.712-5.144 0.448 39.992 2.952 76.456 12.176 96.432h-48.272zm36-384.02-8e-3 -2.328-1.24-1.96c-20.584-32.352-36.584-65.464-36.832-75.688 56.848 0.752 78.344 34.672 79.216 36.104l4.128 6.872 6.864-4.144c0.12-0.064 11.808-6.848 27.872-6.848 16.096 0 27.784 6.8 27.864 6.848l6.864 4.144 4.128-6.872c0.208-0.36 21.84-35.312 79.216-36.104-0.248 10.232-16.248 43.344-36.832 75.688l-1.24 1.968v2.32c-8e-3 3.92-1.136 96.008-80 96.008s-79.992-92.088-80-96.008zm128 384.01c-6.44 0-15.992-40.312-16-96h-16c0 29.44 2.104 72.824 13.032 96h-58.056c10.92-23.176 13.024-66.56 13.024-96h-16c-8e-3 55.688-9.56 96-16 96-1.64 0-16-3.144-16-112 0-20.032 6.712-40.168 13.816-61.472 3.544-10.632 7.208-21.624 9.944-32.592 5.16-20.64 12.992-57.632 15.36-68.888 7.488 1.872 15.728 2.952 24.88 2.952s17.392-1.08 24.88-2.952c2.368 11.248 10.2 48.248 15.36 68.888 2.736 10.968 6.4 21.96 9.944 32.592 7.104 21.304 13.816 41.44 13.816 61.472 0 108.86-14.36 112-16 112zm68-8c2.2 0 4 1.8 4 4s-1.8 4-4 4h-48.272c9.224-19.976 11.728-56.432 12.176-96.424 4.328 0.208 10.056 1.288 14.712 5.144 6.224 5.16 9.384 14.344 9.384 27.28 0 21.208-14.512 43.352-14.664 43.568l-8.24 12.432zm92-248c-22.056 0-40 17.944-40 40v16c0 43.512-19.048 85.208-51.408 113.86-2.552-7.24-6.504-13.152-11.92-17.592-4.832-3.96-10.128-6.104-15.104-7.328l14.928-6.64c28.856-12.816 47.504-41.512 47.504-73.096v-25.208c0-30.872 25.128-56 56-56 4.416 0 8 3.584 8 8s-3.584 8-8 8z"/>
  </g>
</svg>
