<svg width="479.16px" height="479.16px" enable-background="new 0 0 479.165 479.165" version="1.1" viewBox="0 0 479.16 479.16" xmlns="http://www.w3.org/2000/svg">
  <circle cx="239.58" cy="239.58" r="239.58" fill="#fff"/>
  <g id="car" transform="matrix(-.9 0 0 .9 455.21 23.958)">
    <path d="m454.8 195.4c-9.625-13.042-14.316-20.965-39.703-38.896-24.699-17.445-67.108-38.24-128.88-38.24-68.672 0-110.94 21.8-134.3 40.088-19.219 15.044-29.273 30.28-33.354 37.528-37.676 0.136-64.132 0.226-67.988 0.226-58.657 0-77.115 112.43 3.828 112.43 3.374 0 5.621 0.158 11.521 0.268 1.302-31.836 27.595-57.336 59.742-57.336 32.183 0 58.495 25.554 59.746 57.434h124.67c0.903-32.383 27.508-58.453 60.104-58.453 32.541 0 59.109 25.979 60.1 58.282 75.085-4.771 47.036-82.81 24.508-113.34zm-311.71 0.39c4.851-6.312 12.107-14.271 22.407-22.176 26.072-20.01 61.277-31.768 102.6-34.4v56.111c-43.369 0.162-87.722 0.328-125 0.465zm120.53 38.986h-21.527c-2.798 0-5.064-2.268-5.064-5.065 0-2.798 2.267-5.065 5.064-5.065h21.527c2.798 0 5.064 2.268 5.064 5.065s-2.266 5.065-5.064 5.065zm106.53-39.838c-26.501 0.101-57.161 0.217-88.803 0.336v-56.586c1.618-0.027 3.241-0.042 4.875-0.042 30.808 0 58.899 5.378 83.928 16.028zm13.249-0.051v-33.931c6.609 3.47 12.981 7.339 19.106 11.61 11.36 7.922 19.825 15.905 25.612 22.15-11.81 0.045-27.089 0.104-44.718 0.171z"/>
    <path d="m125.67 261.67c-27.355 0-49.613 22.257-49.613 49.615s22.258 49.615 49.613 49.615c27.357 0 49.615-22.257 49.615-49.615s-22.258-49.615-49.615-49.615zm0 75.663c-14.361 0-26.046-11.685-26.046-26.048 0-14.362 11.685-26.048 26.046-26.048 14.363 0 26.048 11.686 26.048 26.048-1e-3 14.364-11.685 26.048-26.048 26.048z"/>
    <path d="m370.2 260.99c-27.357 0-49.615 22.257-49.615 49.615 0 27.357 22.258 49.615 49.615 49.615 27.36 0 49.616-22.258 49.616-49.615 1e-3 -27.359-22.255-49.615-49.616-49.615zm0 75.662c-14.361 0-26.048-11.686-26.048-26.049 0-14.362 11.687-26.047 26.048-26.047 14.364 0 26.048 11.685 26.048 26.047 0 14.366-11.683 26.049-26.048 26.049z"/>
  </g>
</svg>
