<!-- https://www.svgrepo.com/collection/emoji-2/ -->

<svg xmlns="http://www.w3.org/2000/svg">
  
  <symbol id="happy-cute" width="100%" viewBox="0 0 512.009 512.009" preserveAspectRatio="xMidYMid meet">
    <circle style="fill:#F7B239;" cx="256.004" cy="256.004" r="256.004"/>
    <path style="fill:#E09B2D;" d="M121.499,390.501C29.407,298.407,22.15,153.608,99.723,53.204 c-8.593,6.638-16.861,13.895-24.743,21.777c-99.974,99.974-99.974,262.065,0,362.038s262.065,99.974,362.038,0 c7.881-7.881,15.138-16.15,21.777-24.743C358.392,489.85,213.593,482.593,121.499,390.501z"/>
    <g>
      <circle style="fill:#F95428;" cx="94.811" cy="267.479" r="25.013"/>
      <circle style="fill:#F95428;" cx="417.185" cy="267.479" r="25.013"/>
    </g>
    <g>
      <path style="fill:#4D4D4D;" d="M196.533,199.542c-3.23,0-6.379-1.65-8.155-4.624c-8.571-14.347-23.667-22.913-40.38-22.913 s-31.809,8.565-40.38,22.913c-2.687,4.498-8.511,5.966-13.012,3.279c-4.499-2.688-5.966-8.513-3.279-13.012 c12.03-20.136,33.215-32.156,56.671-32.156s44.641,12.022,56.671,32.156c2.688,4.499,1.22,10.325-3.279,13.012 C199.867,199.108,198.189,199.542,196.533,199.542z"/>
      <path style="fill:#4D4D4D;" d="M412.536,199.542c-3.23,0-6.378-1.65-8.154-4.624c-8.571-14.347-23.667-22.913-40.381-22.913 c-16.713,0-31.807,8.566-40.379,22.913c-2.686,4.499-8.513,5.966-13.012,3.279c-4.499-2.687-5.966-8.513-3.279-13.012 c12.03-20.135,33.215-32.156,56.67-32.156c23.456,0,44.641,12.02,56.673,32.156c2.687,4.499,1.22,10.324-3.279,13.012 C415.87,199.108,414.192,199.542,412.536,199.542z"/>
      <path style="fill:#4D4D4D;" d="M296.511,335.795c-16.646,0-31.418-8.177-40.512-20.725c-9.093,12.547-23.866,20.725-40.512,20.725 c-27.57,0-50-22.43-50-49.999c0-5.24,4.248-9.489,9.489-9.489s9.489,4.248,9.489,9.489c0,17.106,13.917,31.022,31.023,31.022 s31.023-13.917,31.023-31.022c0-5.24,4.248-9.489,9.489-9.489c5.242,0,9.489,4.248,9.489,9.489 c0,17.106,13.917,31.022,31.023,31.022c17.106,0,31.022-13.917,31.022-31.022c0-5.24,4.247-9.489,9.489-9.489 s9.489,4.248,9.489,9.489C346.51,313.365,324.08,335.795,296.511,335.795z"/>
    </g>
  </symbol>
  
  <symbol id="cute" width="100%" viewBox="0 0 512.009 512.009" preserveAspectRatio="xMidYMid meet">
    <circle style="fill:#F7B239;" cx="256.004" cy="256.004" r="256.004"/>
    <path style="fill:#E09B2D;" d="M121.499,390.501C29.407,298.407,22.15,153.608,99.723,53.204 c-8.593,6.638-16.861,13.895-24.743,21.777c-99.974,99.974-99.974,262.065,0,362.038s262.065,99.974,362.038,0 c7.881-7.881,15.138-16.15,21.777-24.743C358.392,489.85,213.593,482.593,121.499,390.501z"/>
    <g>
      <circle style="fill:#4D4D4D;" cx="367.338" cy="262.052" r="28.558"/>
      <circle style="fill:#4D4D4D;" cx="144.671" cy="262.052" r="28.558"/>
      <path style="fill:#4D4D4D;" d="M285.51,369.794c-11.779,0-22.353-5.248-29.51-13.53c-7.157,8.282-17.732,13.53-29.511,13.53 c-21.505,0-39-17.495-39-39c0-5.24,4.248-9.489,9.489-9.489c5.24,0,9.489,4.248,9.489,9.489c0,11.04,8.983,20.022,20.022,20.022 c11.04,0,20.022-8.983,20.022-20.022c0-5.24,4.248-9.489,9.489-9.489c5.242,0,9.489,4.248,9.489,9.489 c0,11.04,8.983,20.022,20.021,20.022c11.038,0,20.021-8.983,20.021-20.022c0-5.24,4.247-9.489,9.489-9.489s9.489,4.248,9.489,9.489 C324.509,352.299,307.014,369.794,285.51,369.794z"/>
    </g>
    <g>
      <circle style="fill:#F95428;" cx="94.811" cy="340.985" r="25.013"/>
      <circle style="fill:#F95428;" cx="417.185" cy="340.985" r="25.013"/>
    </g>
  </symbol>
  
  <symbol id="happy" width="100%" viewBox="0 0 512.009 512.009" preserveAspectRatio="xMidYMid meet">
    <circle style="fill:#F7B239;" cx="256.004" cy="256.004" r="256.004"/>
    <path style="fill:#E09B2D;" d="M121.499,390.501C29.407,298.407,22.15,153.608,99.723,53.204 c-8.593,6.638-16.861,13.895-24.743,21.777c-99.974,99.974-99.974,262.065,0,362.038s262.065,99.974,362.038,0 c7.881-7.881,15.138-16.15,21.777-24.743C358.392,489.85,213.593,482.593,121.499,390.501z"/>
    <g>
      <path style="fill:#4D4D4D;" d="M196.533,239.069c-3.23,0-6.378-1.65-8.154-4.624c-8.571-14.347-23.667-22.913-40.38-22.913 s-31.809,8.565-40.38,22.913c-2.686,4.499-8.512,5.966-13.012,3.279c-4.499-2.688-5.966-8.513-3.279-13.012 c12.03-20.136,33.215-32.156,56.671-32.156s44.641,12.022,56.671,32.156c2.687,4.499,1.22,10.325-3.279,13.012 	C199.867,238.636,198.188,239.069,196.533,239.069z"/>
      <path style="fill:#4D4D4D;" d="M412.536,239.069c-3.23,0-6.378-1.65-8.154-4.624c-8.571-14.347-23.667-22.913-40.381-22.913 c-16.713,0-31.807,8.566-40.379,22.913c-2.687,4.499-8.513,5.966-13.012,3.279c-4.499-2.687-5.966-8.513-3.279-13.012 c12.03-20.135,33.215-32.156,56.67-32.156c23.456,0,44.641,12.02,56.673,32.156c2.687,4.499,1.22,10.324-3.279,13.012 	C415.87,238.636,414.192,239.069,412.536,239.069z"/>
      <path style="fill:#4D4D4D;" d="M256.001,378.577c-51.477,0-102.933-19.587-142.121-58.774c-3.706-3.706-3.706-9.713,0-13.418 c3.707-3.706,9.714-3.706,13.42,0c70.961,70.965,186.433,70.966,257.402,0c3.708-3.706,9.715-3.704,13.42,0 c3.706,3.706,3.706,9.714,0,13.42C358.943,358.981,307.462,378.577,256.001,378.577z"/>
    </g>
    <path style="fill:#E09B2D;" d="M256.001,415.388c-15.303,0-30.599-2.085-45.475-6.256c-5.045-1.414-7.989-6.652-6.575-11.698 c1.414-5.045,6.648-7.991,11.698-6.575c26.398,7.401,54.306,7.402,80.706,0c5.049-1.414,10.283,1.53,11.698,6.575 c1.414,5.047-1.53,10.283-6.575,11.698C286.602,413.301,271.298,415.388,256.001,415.388z"/>
  </symbol>
  
  <symbol id="in-love" width="100%" viewBox="0 0 512.009 512.009" preserveAspectRatio="xMidYMid meet">
    <circle style="fill:#F7B239;" cx="256.004" cy="256.004" r="256.004"/>
    <path style="fill:#E09B2D;" d="M121.499,390.501C29.407,298.407,22.15,153.608,99.723,53.204 c-8.593,6.638-16.861,13.895-24.743,21.777c-99.974,99.974-99.974,262.065,0,362.038s262.065,99.974,362.038,0 c7.881-7.881,15.138-16.15,21.777-24.743C358.392,489.85,213.593,482.593,121.499,390.501z"/>
    <g>
      <path style="fill:#F95428;" d="M357.185,133.368L357.185,133.368c-15.464-15.464-40.536-15.464-56,0l0,0 c-15.464,15.464-15.464,40.536,0,56l0,0l56,56l56-56l0,0c15.464-15.464,15.464-40.536,0-56l0,0 C397.721,117.904,372.649,117.904,357.185,133.368L357.185,133.368z"/>
      <path style="fill:#F95428;" d="M154.815,133.368L154.815,133.368c-15.464-15.464-40.536-15.464-56,0l0,0 c-15.464,15.464-15.464,40.536,0,56l0,0l56,56l56-56l0,0c15.464-15.464,15.464-40.536,0-56l0,0 C195.35,117.904,170.279,117.904,154.815,133.368L154.815,133.368z"/>
    </g>
    <path style="fill:#FFFFFF;" d="M126.955,282.606h258.092c0,14.486-2.391,28.415-6.794,41.421H133.749 C129.346,311.021,126.955,297.092,126.955,282.606z"/>
    <path style="fill:#A81004;" d="M133.749,324.027h244.504c-8.679,25.632-25.189,47.633-46.684,63.182 c-9.033-15.22-25.632-25.417-44.622-25.417c-11.602,0-22.305,3.808-30.946,10.248c-8.641-6.44-19.357-10.248-30.958-10.248 c-18.977,0-35.589,10.197-44.609,25.417C158.938,371.66,142.428,349.659,133.749,324.027z"/>
    <path style="fill:#F95428;" d="M286.946,361.792c18.99,0,35.589,10.197,44.622,25.417c-21.242,15.384-47.355,24.443-75.568,24.443 c-28.213,0-54.326-9.059-75.568-24.443c9.021-15.22,25.632-25.417,44.609-25.417c11.601,0,22.317,3.808,30.958,10.248 C264.642,365.6,275.345,361.792,286.946,361.792z"/>
  </symbol>
  
  <symbol id="happy-smile" width="100%" viewBox="0 0 512.009 512.009" preserveAspectRatio="xMidYMid meet">
    <circle style="fill:#F7B239;" cx="256.004" cy="256.004" r="256.004"/>
    <path style="fill:#E09B2D;" d="M121.499,390.501C29.407,298.407,22.15,153.608,99.723,53.204 c-8.593,6.638-16.861,13.895-24.743,21.777c-99.974,99.974-99.974,262.065,0,362.038s262.065,99.974,362.038,0 c7.881-7.881,15.138-16.15,21.777-24.743C358.392,489.85,213.593,482.593,121.499,390.501z"/>
    <path style="fill:#FFFFFF;" d="M377.624,213.806v44.344c-67.167,67.167-176.072,67.167-243.252,0v-44.344 C201.552,280.986,310.457,280.986,377.624,213.806z"/>
    <path style="fill:#F95428;" d="M286.95,339.841c19.736,0,36.892,11.02,45.66,27.239c-20.913,16.991-47.57,27.163-76.605,27.163 s-55.692-10.172-76.605-27.163c8.755-16.219,25.923-27.239,45.647-27.239c11.601,0,22.317,3.808,30.958,10.248 C264.645,343.649,275.349,339.841,286.95,339.841z"/>
    <path style="fill:#A81004;" d="M377.624,258.15v14.473c0,33.59-13.613,63.992-35.627,85.993c-2.973,2.986-6.111,5.807-9.387,8.464 c-8.768-16.219-25.923-27.239-45.66-27.239c-11.601,0-22.305,3.808-30.946,10.248c-8.641-6.44-19.357-10.248-30.958-10.248 c-19.724,0-36.892,11.02-45.647,27.239c-27.479-22.279-45.027-56.325-45.027-94.457V258.15 C201.552,325.317,310.457,325.317,377.624,258.15z"/>
    <g>
      <path style="fill:#4D4D4D;" d="M168.58,181.703c0,5.24,4.248,9.489,9.489,9.489s9.489-4.248,9.489-9.489 c0-33.141-26.962-60.103-60.103-60.103s-60.103,26.962-60.103,60.103c0,5.24,4.248,9.489,9.489,9.489s9.489-4.248,9.489-9.489 c0-22.677,18.449-41.125,41.125-41.125S168.58,159.028,168.58,181.703z"/>
      <path style="fill:#4D4D4D;" d="M384.546,121.602c-33.141,0-60.103,26.962-60.103,60.103c0,5.24,4.248,9.489,9.489,9.489 c5.24,0,9.489-4.248,9.489-9.489c0-22.677,18.449-41.125,41.125-41.125c22.677,0,41.125,18.449,41.125,41.125 c0,5.24,4.248,9.489,9.489,9.489c5.24,0,9.489-4.248,9.489-9.489C444.648,148.564,417.686,121.602,384.546,121.602z"/>
    </g>
  </symbol>
  
  <symbol id="very-sad" width="100%" viewBox="0 0 512.009 512.009" preserveAspectRatio="xMidYMid meet">
    <circle style="fill:#F7B239;" cx="256.004" cy="256.004" r="256.004"/>
    <g>
      <path style="fill:#E09B2D;" d="M121.499,390.501C29.407,298.407,22.15,153.608,99.723,53.204 c-8.593,6.638-16.861,13.895-24.743,21.777c-99.974,99.974-99.974,262.065,0,362.038s262.065,99.974,362.038,0 c7.881-7.881,15.138-16.15,21.777-24.743C358.392,489.85,213.593,482.593,121.499,390.501z"/>
      <path style="fill:#E09B2D;" d="M288.234,367.985c-1.484,0-2.988-0.349-4.394-1.084c-8.513-4.457-18.142-6.814-27.845-6.814 c-9.699,0-19.324,2.356-27.836,6.813c-4.639,2.432-10.376,0.639-12.808-4.004c-2.43-4.642-0.638-10.377,4.004-12.807 c11.218-5.874,23.887-8.979,36.64-8.979c12.755,0,25.428,3.105,36.647,8.979c4.643,2.43,6.436,8.165,4.005,12.807 C294.954,366.133,291.651,367.985,288.234,367.985z"/>
    </g>
    <g>
      <path style="fill:#4D4D4D;" d="M257.185,302.041c-39.121,0-75.902,15.235-103.564,42.898c-3.706,3.706-3.706,9.713,0,13.418 c3.707,3.706,9.714,3.706,13.42,0c24.077-24.078,56.092-37.34,90.145-37.34s66.068,13.261,90.145,37.34 c1.853,1.853,4.281,2.78,6.71,2.78c2.428,0,4.857-0.926,6.71-2.78c3.706-3.706,3.706-9.713,0-13.418 C333.087,317.276,296.306,302.041,257.185,302.041z"/>
      <path style="fill:#4D4D4D;" d="M158.362,132.143c0-5.24-4.247-9.489-9.489-9.489c-5.242,0-9.489,4.248-9.489,9.489 c0,27.852-22.659,50.513-50.513,50.513c-5.242,0-9.489,4.248-9.489,9.489c0,5.24,4.247,9.489,9.489,9.489 C127.189,201.632,158.362,170.46,158.362,132.143z"/>
      <path style="fill:#4D4D4D;" d="M423.128,182.654c-27.854,0-50.513-22.659-50.513-50.513c0-5.24-4.247-9.489-9.489-9.489 s-9.489,4.248-9.489,9.489c0,38.317,31.173,69.49,69.49,69.49c5.242,0,9.489-4.248,9.489-9.489 C432.617,186.903,428.369,182.654,423.128,182.654z"/>
      <path style="fill:#4D4D4D;" d="M177.781,229.019c0-19.358-15.749-35.107-35.107-35.107s-35.107,15.749-35.107,35.107 s15.749,35.107,35.107,35.107S177.781,248.377,177.781,229.019z"/>
      <path style="fill:#4D4D4D;" d="M369.326,193.912c-19.358,0-35.107,15.749-35.107,35.107s15.749,35.107,35.107,35.107 s35.107-15.749,35.107-35.107S388.684,193.912,369.326,193.912z"/>
    </g>
  </symbol>
  
  <symbol id="confused" width="100%" viewBox="0 0 512.009 512.009" preserveAspectRatio="xMidYMid meet">
    <circle style="fill:#F7B239;" cx="256.004" cy="256.004" r="256.004"/>
    <g>
      <path style="fill:#E09B2D;" d="M121.499,390.501C29.407,298.407,22.15,153.608,99.723,53.204 c-8.593,6.638-16.861,13.895-24.743,21.777c-99.974,99.974-99.974,262.065,0,362.038s262.065,99.974,362.038,0 c7.881-7.881,15.138-16.15,21.777-24.743C358.392,489.85,213.593,482.593,121.499,390.501z"/>
      <path style="fill:#E09B2D;" d="M299.018,352.566H210.45c-5.242,0-9.489-4.248-9.489-9.489c0-5.24,4.247-9.489,9.489-9.489h88.569 c5.242,0,9.489,4.248,9.489,9.489C308.507,348.318,304.259,352.566,299.018,352.566z"/>
    </g>
    <g>
      <path style="fill:#4D4D4D;" d="M375.557,298.165H133.912c-5.242,0-9.489,4.248-9.489,9.489c0,5.24,4.247,9.489,9.489,9.489h241.645 c5.242,0,9.489-4.248,9.489-9.489C385.045,302.413,380.797,298.165,375.557,298.165z"/>
      <path style="fill:#4D4D4D;" d="M177.781,225.753c0-19.358-15.749-35.107-35.107-35.107s-35.107,15.749-35.107,35.107 s15.749,35.107,35.107,35.107S177.781,245.111,177.781,225.753z"/>
      <path style="fill:#4D4D4D;" d="M369.326,190.646c-19.358,0-35.107,15.749-35.107,35.107s15.749,35.107,35.107,35.107 s35.107-15.749,35.107-35.107S388.684,190.646,369.326,190.646z"/>
    </g>
  </symbol>
  
  <symbol id="bored" width="100%" viewBox="0 0 512.009 512.009" preserveAspectRatio="xMidYMid meet">
    <circle style="fill:#F7B239;" cx="256.004" cy="256.004" r="256.004"/>
    <g>
      <path style="fill:#E09B2D;" d="M121.499,390.501C29.407,298.407,22.15,153.608,99.723,53.204 c-8.593,6.638-16.861,13.895-24.743,21.777c-99.974,99.974-99.974,262.065,0,362.038s262.065,99.974,362.038,0 c7.881-7.881,15.138-16.15,21.777-24.743C358.392,489.85,213.593,482.593,121.499,390.501z"/>
      <path style="fill:#E09B2D;" d="M256.001,415.398c-10.877,0-21.753-2.219-32.329-6.66c-4.832-2.029-7.104-7.591-5.075-12.423 c2.029-4.83,7.588-7.105,12.423-5.075c16.342,6.862,33.619,6.862,49.961,0c4.833-2.031,10.393,0.244,12.423,5.075 c2.029,4.832-0.243,10.393-5.075,12.423C277.754,413.179,266.876,415.398,256.001,415.398z"/>
    </g>
    <path style="fill:#A81004;" d="M315.139,288.36c0,15.671-3.297,30.302-8.986,42.676c-10.443,22.726-28.997,37.831-50.145,37.831 s-39.702-15.105-50.144-37.831c-5.705-12.375-9.002-27.005-9.002-42.676c0-44.455,26.484-80.508,59.146-80.508 S315.139,243.904,315.139,288.36z"/>
    <g>
      <path style="fill:#4D4D4D;" d="M402.37,153.329c-14.153,8.743-30.865,11.452-47.05,7.63c-16.19-3.823-29.921-13.723-38.666-27.875 c-2.753-4.457-8.599-5.839-13.06-3.084c-4.457,2.754-5.839,8.602-3.084,13.06c11.408,18.464,29.324,31.38,50.447,36.369 c6.252,1.476,12.563,2.206,18.831,2.206c14.905,0,29.56-4.129,42.559-12.161c4.457-2.754,5.839-8.602,3.084-13.06 C412.676,151.957,406.831,150.576,402.37,153.329z"/>
      <path style="fill:#4D4D4D;" d="M211.49,143.059c2.754-4.458,1.373-10.306-3.084-13.06c-4.458-2.756-10.306-1.373-13.06,3.084 c-8.743,14.152-22.476,24.052-38.666,27.875c-16.188,3.822-32.898,1.115-47.05-7.63c-4.457-2.753-10.305-1.371-13.06,3.084 c-2.754,4.458-1.373,10.306,3.084,13.06c12.999,8.032,27.651,12.161,42.559,12.161c6.266,0,12.578-0.73,18.831-2.206 C182.165,174.44,200.082,161.524,211.49,143.059z"/>
    </g>
  </symbol>
  
  <symbol id="arrogant" width="100%" viewBox="0 0 512.009 512.009" preserveAspectRatio="xMidYMid meet">
    <circle style="fill:#F7B239;" cx="256.004" cy="256.004" r="256.004"/>
    <path style="fill:#E09B2D;" d="M121.499,390.501C29.407,298.407,22.15,153.608,99.723,53.204 c-8.593,6.638-16.861,13.895-24.743,21.777c-99.974,99.974-99.974,262.065,0,362.038s262.065,99.974,362.038,0 c7.881-7.881,15.138-16.15,21.777-24.743C358.392,489.85,213.593,482.593,121.499,390.501z"/>
    <g>
      <path style="fill:#4D4D4D;" d="M364.002,178.597C363.999,178.597,364.002,178.597,364.002,178.597 c-23.456,0-44.641-12.022-56.671-32.156c-2.687-4.499-1.22-10.325,3.279-13.012c4.499-2.686,10.325-1.22,13.012,3.279 c8.571,14.347,23.666,22.912,40.379,22.913c16.714,0,31.81-8.566,40.381-22.913c2.688-4.5,8.518-5.965,13.012-3.279 c4.499,2.688,5.966,8.513,3.279,13.012C408.643,166.574,387.456,178.597,364.002,178.597z"/>
      <path style="fill:#4D4D4D;" d="M147.999,178.597c-23.456,0-44.641-12.022-56.673-32.156c-2.687-4.499-1.22-10.325,3.279-13.012 c4.501-2.686,10.326-1.22,13.012,3.279c8.571,14.347,23.667,22.913,40.381,22.913c16.713,0,31.807-8.566,40.379-22.913 c2.688-4.499,8.513-5.966,13.012-3.279c4.499,2.687,5.966,8.513,3.279,13.012C192.64,166.574,171.455,178.596,147.999,178.597z"/>
      <path style="fill:#4D4D4D;" d="M120.588,296.34c-2.428,0-4.857-0.926-6.71-2.78c-3.706-3.706-3.706-9.714,0-13.418 c78.365-78.364,205.875-78.366,284.243,0c3.706,3.706,3.706,9.714,0,13.418c-3.707,3.706-9.714,3.706-13.42,0 c-70.965-70.966-186.437-70.966-257.402,0C125.445,295.414,123.016,296.34,120.588,296.34z"/>
    </g>
    <path style="fill:#E09B2D;" d="M298.92,284.252c-0.848,0-1.711-0.114-2.566-0.354c-26.401-7.402-54.309-7.401-80.706,0 c-5.042,1.413-10.282-1.53-11.698-6.575c-1.414-5.047,1.53-10.283,6.575-11.699c29.749-8.34,61.199-8.341,90.951,0 c5.045,1.414,7.989,6.652,6.575,11.698C306.876,281.511,303.067,284.252,298.92,284.252z"/>
  </symbol>
  
  <symbol id="sad" width="100%" viewBox="0 0 512.009 512.009" preserveAspectRatio="xMidYMid meet">
    <circle style="fill:#F7B239;" cx="256.004" cy="256.004" r="256.004"/>
    <g>
      <path style="fill:#E09B2D;" d="M121.499,390.501C29.407,298.407,22.15,153.608,99.723,53.204 c-8.593,6.638-16.861,13.895-24.743,21.777c-99.974,99.974-99.974,262.065,0,362.038s262.065,99.974,362.038,0 c7.881-7.881,15.138-16.15,21.777-24.743C358.392,489.85,213.593,482.593,121.499,390.501z"/>
      <path style="fill:#E09B2D;" d="M287.513,369.876c-1.126,0-2.27-0.201-3.383-0.626c-18.404-7.028-37.86-7.027-56.259,0 c-4.891,1.867-10.378-0.583-12.249-5.481c-1.87-4.896,0.585-10.379,5.481-12.249c22.828-8.716,46.964-8.717,69.795,0 c4.896,1.87,7.351,7.353,5.481,12.249C294.935,367.552,291.334,369.876,287.513,369.876z"/>
    </g>
    <g>
      <path style="fill:#4D4D4D;" d="M368.039,336.523c-33.142-22.293-71.884-34.077-112.037-34.077s-78.894,11.784-112.037,34.077 c-4.35,2.925-5.503,8.821-2.578,13.169c2.926,4.348,8.819,5.502,13.169,2.577c30.001-20.179,65.08-30.846,101.447-30.846 s71.446,10.667,101.447,30.846c1.624,1.093,3.465,1.617,5.287,1.617c3.053,0,6.05-1.471,7.882-4.194 C373.543,345.343,372.389,339.448,368.039,336.523z"/>
      <path style="fill:#4D4D4D;" d="M177.781,203.232c0-19.358-15.749-35.107-35.107-35.107s-35.107,15.749-35.107,35.107 s15.749,35.107,35.107,35.107S177.781,222.59,177.781,203.232z"/>
      <path style="fill:#4D4D4D;" d="M369.326,168.125c-19.358,0-35.107,15.749-35.107,35.107s15.749,35.107,35.107,35.107 s35.107-15.749,35.107-35.107S388.684,168.125,369.326,168.125z"/>
    </g>
  </symbol>
  
  <symbol id="reserved" width="100%" viewBox="0 0 512.009 512.009" preserveAspectRatio="xMidYMid meet">

  </symbol>

</svg>
