<svg xmlns="http://www.w3.org/2000/svg">
  
  <symbol id="icon-rotate" width="100%" viewBox="0 0 64 64" preserveAspectRatio="xMidYMid meet">
    <path d="M30,2c0,1.104,0.896,2,2,2c7.479,0,14.51,2.913,19.798,8.202C57.087,17.49,60,24.521,60,32c0,7.381-2.842,14.323-8,19.587 V46c0-1.104-0.896-2-2-2s-2,0.896-2,2v12h12c1.104,0,2-0.896,2-2s-0.896-2-2-2h-4.776C60.885,48.032,64,40.257,64,32 c0-8.547-3.329-16.583-9.374-22.627C48.583,3.329,40.547,0,32,0C30.896,0,30,0.896,30,2z"/>
    <path d="M9.374,54.627C15.417,60.671,23.453,64,32,64c1.104,0,2-0.896,2-2s-0.896-2-2-2c-7.479,0-14.51-2.913-19.798-8.202 C6.913,46.51,4,39.479,4,32c0-7.381,2.842-14.323,8-19.587V18c0,1.104,0.896,2,2,2s2-0.896,2-2V6H4C2.896,6,2,6.896,2,8 s0.896,2,2,2h4.776C3.115,15.968,0,23.743,0,32C0,40.547,3.329,48.583,9.374,54.627z"/>
  </symbol>
  
  <symbol id="icon-start" width="100%" viewBox="0 0 496.158 496.158" preserveAspectRatio="xMidYMid meet">
    <path d="M496.158,248.085c0-137.021-111.07-248.082-248.076-248.082C111.07,0.002,0,111.062,0,248.085 c0,137.002,111.07,248.071,248.083,248.071C385.088,496.155,496.158,385.086,496.158,248.085z"/>
    <path fill="currentcolor" d="M370.805,235.242L195.856,127.818c-4.776-2.934-11.061-3.061-15.951-0.322 c-4.979,2.785-8.071,8.059-8.071,13.762v214c0,5.693,3.083,10.963,8.046,13.752c2.353,1.32,5.024,2.02,7.725,2.02 c2.897,0,5.734-0.797,8.205-2.303l174.947-106.576c4.657-2.836,7.556-7.986,7.565-13.44 C378.332,243.258,375.452,238.096,370.805,235.242z"/>
  </symbol>
  
  <symbol id="icon-repeat" width="100%" viewBox="0 0 496.156 496.156" preserveAspectRatio="xMidYMid meet">
    <path d="M0,248.08C0,111.06,111.069,0.002,248.074,0.002c137.013,0,248.082,111.059,248.082,248.078 c0,137.005-111.069,248.074-248.082,248.074C111.069,496.154,0,385.085,0,248.08z"/>
    <g fill="currentcolor">
      <path d="M428.243,172.149c-10.348,0.023-20.694,0.054-31.042,0.077 c-23.272-52.177-68.95-89.871-126.649-98.91c-64.287-10.071-125.816,19.788-162.504,72.312 c-16.296,23.326,22.003,45.165,38.16,22.034c50.317-72.037,157.757-65.527,201.907,4.686c-9.559,0.022-19.118,0.046-28.678,0.068 c-2.674,0.008-4.574,1.197-5.749,2.877c-1.92,2.058-2.65,5.072-0.639,8.186c18.204,28.25,36.408,56.499,54.616,84.745 c3.061,4.747,9.663,4.708,12.696-0.046c18.062-28.338,36.126-56.675,54.188-85.013C437.538,178.48,433.602,172.135,428.243,172.149 z"/>
      <path d="M350.353,327.224c-49.927,71.49-156.108,65.63-200.886-3.049c9.161-0.022,18.322-0.046,27.484-0.068 c2.666-0.008,4.563-1.19,5.741-2.865c1.924-2.059,2.658-5.072,0.646-8.197c-18.2-28.246-36.405-56.499-54.609-84.741 c-3.056-4.751-9.662-4.712-12.695,0.046c-18.063,28.334-36.13,56.671-54.196,85.009c-2.987,4.689,0.948,11.032,6.308,11.017 c10.669-0.027,21.337-0.054,32.006-0.08c23.498,51.319,68.777,88.332,125.865,97.275c64.287,10.072,125.816-19.784,162.496-72.312 C404.806,325.928,366.508,304.09,350.353,327.224z"/>
    </g>
  </symbol>

  <symbol id="icon-github" width="100%" viewBox="0 0 16 16" preserveAspectRatio="xMidYMid meet">
    <path fill-rule="evenodd" d="M8 0C3.58 0 0 3.58 0 8c0 3.54 2.29 6.53 5.47 7.59.4.07.55-.17.55-.38 0-.19-.01-.82-.01-1.49-2.01.37-2.53-.49-2.69-.94-.09-.23-.48-.94-.82-1.13-.28-.15-.68-.52-.01-.53.63-.01 1.08.58 1.23.82.72 1.21 1.87.87 2.33.66.07-.52.28-.87.51-1.07-1.78-.2-3.64-.89-3.64-3.95 0-.87.31-1.59.82-2.15-.08-.2-.36-1.02.08-2.12 0 0 .67-.21 2.2.82.64-.18 1.32-.27 2-.27.68 0 1.36.09 2 .27 1.53-1.04 2.2-.82 2.2-.82.44 1.1.16 1.92.08 2.12.51.56.82 1.27.82 2.15 0 3.07-1.87 3.75-3.65 3.95.29.25.54.73.54 1.48 0 1.07-.01 1.93-.01 2.2 0 .21.15.46.55.38A8.013 8.013 0 0016 8c0-4.42-3.58-8-8-8z"/>
  </symbol>
  
  <symbol id="icon-github2" viewBox="0 0 400 400" width="100%" preserveAspectRatio="xMidYMid meet">
    <path fill-rule="evenodd" d="M186.122 0.431 C 65.718 9.229,-19.683 121.126,3.905 239.184 C 25.517 347.350,131.065 417.747,239.184 396.104 C 347.400 374.442,417.679 269.060,396.098 160.816 C 376.490 62.465,285.744 -6.849,186.122 0.431 M214.490 32.654 C 302.118 40.623,367.551 112.164,367.551 200.000 C 367.551 260.166,337.247 313.686,285.755 344.458 C 276.139 350.205,253.238 360.408,249.955 360.408 C 249.867 360.408,249.795 352.464,249.794 342.755 C 249.792 314.928,247.203 306.267,236.337 297.730 L 233.810 295.745 239.456 295.037 C 289.377 288.785,315.663 265.608,322.011 222.245 C 326.378 192.419,321.438 169.989,306.605 152.297 C 303.748 148.890,303.804 149.097,304.884 145.958 C 309.072 133.785,308.626 118.051,303.670 103.148 L 301.980 98.066 299.868 97.812 C 289.294 96.542,272.088 102.930,253.297 115.103 C 248.878 117.965,249.565 117.883,243.188 116.318 C 216.923 109.871,184.404 109.878,158.624 116.337 C 152.411 117.894,153.457 118.113,146.799 113.861 C 131.748 104.251,117.134 98.490,105.918 97.746 C 99.920 97.349,99.980 97.306,98.003 103.383 C 93.021 118.696,92.645 133.512,96.918 146.141 L 97.918 149.099 95.873 151.386 C 84.650 163.939,78.910 179.753,78.477 199.318 C 77.201 256.882,105.123 288.489,163.135 295.151 L 167.699 295.675 164.231 298.920 C 153.824 308.657,151.864 316.240,151.845 346.837 C 151.840 355.016,151.682 360.816,151.463 360.816 C 150.687 360.816,138.820 356.564,134.701 354.810 C 80.102 331.561,41.784 281.740,33.686 223.469 C 20.356 127.547,89.971 40.692,186.735 32.520 C 190.672 32.187,210.408 32.283,214.490 32.654 "/>
  </symbol>
  
  <symbol id="icon-rs-school-js" viewBox="0 0 86 32" width="100%" preserveAspectRatio="xMidYMid meet">
    <path d="M48.781 1.158c-2.463 0.572-3.686 1.87-3.698 3.924-0.014 2.392 1.326 3.49 5.622 4.61 2.088 0.544 2.798 1.487 1.81 2.403-1.121 1.039-3.315 0.365-3.591-1.104-0.137-0.733-0.13-0.731-2.431-0.603l-2.039 0.113 0.098 0.642c0.151 0.99 0.968 2.518 1.664 3.114 2.063 1.765 7.744 1.584 9.689-0.31l0.569-0.554 0.109 0.644c0.4 2.369 2.806 4.595 5.574 5.157l0.889 0.181-0.525 0.688c-1.733 2.27-1.782 6.912-0.098 9.323 2.577 3.689 9.829 3.582 12.215-0.18l0.444-0.7v3.339h11.239v-3.59h-6.712v-10.459h-4.527l-0.009 1.6c-0.008 1.307-0.043 1.544-0.195 1.295-0.86-1.411-2.535-2.583-4.177-2.922l-0.885-0.183 0.898-0.675c2.794-2.1 4.534-5.931 4.087-8.998-1.175-8.060-12.785-8.185-17.207-0.186-0.285 0.515-0.528 0.953-0.54 0.973s-0.41-0.34-0.885-0.799c-0.985-0.954-1.776-1.303-4.465-1.969-2.502-0.62-3.014-1.055-2.173-1.846 0.8-0.752 2.542-0.265 2.934 0.821 0.23 0.636 0.188 0.63 2.848 0.454l1.538-0.102-0.098-0.613c-0.454-2.84-4.028-4.404-7.973-3.487zM0.937 8.273v7.024h4.527v-5.62h0.46c0.726 0 1.165 0.534 2.565 3.122l1.309 2.419 2.517 0.043c1.384 0.024 2.516 0.001 2.516-0.050 0-0.791-2.821-5.356-3.604-5.832l-0.429-0.261 0.866-0.453c3.211-1.681 2.603-6.497-0.916-7.252-0.444-0.095-2.693-0.166-5.292-0.166h-4.519v7.024zM69.476 2.472c7.065 1.844 6.418 11.756-1.004 15.375-7.562 3.687-14.301-2.366-10.707-9.616 2.097-4.23 7.461-6.868 11.71-5.758zM8.583 4.415c1.59 0.804 0.535 2.288-1.717 2.416l-1.402 0.080v-2.697l1.366 0.002c0.782 0.001 1.531 0.086 1.753 0.198zM66.977 5.657c-1.243 0.33-2.507 1.586-2.508 2.492-0.002 1.48 1.181 2.014 3.043 1.373 1.139-0.392 1.429-0.392 1.64 0.001 0.357 0.668-0.813 1.349-1.496 0.87-0.343-0.24-1.608 0.517-1.621 0.97-0.020 0.682 1.706 0.94 2.763 0.413 3.357-1.673 2.404-5.264-1.078-4.063-1.392 0.48-1.691 0.501-1.691 0.115 0-0.606 0.947-1.044 1.36-0.631 0.169 0.169 1.449-0.68 1.449-0.961 0-0.42-1.134-0.774-1.862-0.58zM61.938 9.025c-0.745 0.539-0.78 0.399 0.586 2.338 0.841 1.193 1.164 1.782 1.132 2.061-0.056 0.477-0.591 0.604-0.967 0.229-0.239-0.239-0.301-0.22-0.867 0.265-1.429 1.224 0.743 2.275 2.357 1.141 1.773-1.246 1.776-2.019 0.013-4.593-1.367-1.997-1.43-2.037-2.255-1.44zM4.638 17.643c-2.554 0.403-4.049 1.896-4.069 4.064-0.020 2.212 1.414 3.472 4.966 4.361 2.177 0.545 2.894 0.961 2.894 1.678 0 2.019-3.614 1.817-3.996-0.223-0.134-0.712-0.117-0.708-2.422-0.583l-2.044 0.111 0.102 0.64c0.466 2.934 2.172 4.155 5.973 4.274 3.014 0.094 4.050-0.198 5.366-1.514l0.901-0.901 0.331 0.447c1.915 2.59 8.384 2.764 10.508 0.282 0.621-0.725 1.318-2.091 1.389-2.72 0.050-0.443 0.036-0.451-1.857-1.025l-1.907-0.579-0.256 0.77c-0.872 2.625-4.165 2.655-4.888 0.045-0.246-0.887-0.216-3.006 0.056-3.919 0.656-2.207 3.427-2.66 4.551-0.743 0.469 0.8 0.343 0.785 2.471 0.304 2.026-0.458 1.939-0.377 1.477-1.372-1.832-3.942-7.991-4.867-11.257-1.692l-0.911 0.886-0.378-0.645c-0.942-1.608-3.913-2.434-6.998-1.946zM47.766 17.647c-1.729 0.3-3.437 1.388-4.402 2.803-0.258 0.379-0.265 0.348-0.273-1.133l-0.008-1.522h-4.527v4.839h-4.527v-4.839h-4.527v14.049h4.527v-5.62h4.527v5.62h4.527v-3.176l0.489 0.737c2.034 3.070 8.325 3.609 11.188 0.958 3.313-3.067 2.663-10.044-1.115-11.972-1.458-0.744-4.017-1.068-5.879-0.745zM7.176 20.525c0.261 0.135 0.567 0.501 0.733 0.877l0.285 0.646 3.050-0.147-0.1 0.796c-0.132 1.053-0.191 1.093-1.066 0.706-0.412-0.182-1.565-0.535-2.564-0.786-2.363-0.592-2.657-0.719-2.778-1.2-0.224-0.89 1.339-1.462 2.441-0.892zM50.443 21.077c2.312 0.642 2.78 5.948 0.636 7.21-1.601 0.942-3.627 0.14-4.102-1.625-0.944-3.507 0.805-6.324 3.466-5.585zM69.316 21.073c2.686 0.746 2.631 6.782-0.068 7.509-2.17 0.584-3.614-0.924-3.603-3.762 0.012-2.949 1.409-4.375 3.671-3.746z"/>
  </symbol>

  <symbol id="icon-close" width="100%" viewBox="0 0 41.756 41.756" preserveAspectRatio="xMidYMid meet">
    <path d="M27.948,20.878L40.291,8.536c1.953-1.953,1.953-5.119,0-7.071c-1.951-1.952-5.119-1.952-7.07,0L20.878,13.809L8.535,1.465 c-1.951-1.952-5.119-1.952-7.07,0c-1.953,1.953-1.953,5.119,0,7.071l12.342,12.342L1.465,33.22c-1.953,1.953-1.953,5.119,0,7.071 C2.44,41.268,3.721,41.755,5,41.755c1.278,0,2.56-0.487,3.535-1.464l12.343-12.342l12.343,12.343 c0.976,0.977,2.256,1.464,3.535,1.464s2.56-0.487,3.535-1.464c1.953-1.953,1.953-5.119,0-7.071L27.948,20.878z"/>
  </symbol>

  <symbol id="icon-plus" width="100%" viewBox="0 0 42 42" preserveAspectRatio="xMidYMid meet">
    <path d="M37.059,16H26V4.941C26,2.224,23.718,0,21,0s-5,2.224-5,4.941V16H4.941C2.224,16,0,18.282,0,21s2.224,5,4.941,5H16v11.059 C16,39.776,18.282,42,21,42s5-2.224,5-4.941V26h11.059C39.776,26,42,23.718,42,21S39.776,16,37.059,16z"/>
  </symbol>
  
  <symbol id="icon-loading" width="100%" viewBox="0 0 32.707 32.707" preserveAspectRatio="xMidYMid meet">
    <path d="M21.477,4.511c0,2.487-2.021,4.508-4.508,4.508c-2.49,0-4.509-2.021-4.509-4.508c0-2.49,2.02-4.511,4.509-4.511 C19.458,0,21.477,2.021,21.477,4.511z M16.972,27.68c-1.386-0.002-2.513,1.119-2.517,2.508c-0.003,1.391,1.117,2.518,2.505,2.52 c1.39,0.004,2.517-1.117,2.519-2.506C19.484,28.811,18.361,27.684,16.972,27.68z M31.451,17.352c0-0.906-0.734-1.641-1.641-1.641 c-0.908,0-1.644,0.732-1.644,1.641c0,0.904,0.733,1.643,1.644,1.643C30.716,18.994,31.451,18.258,31.451,17.352z M6.995,17.352 c0-1.585-1.284-2.87-2.87-2.87s-2.869,1.285-2.869,2.87c0,1.584,1.283,2.869,2.869,2.869S6.995,18.936,6.995,17.352z M26.962,7.354 c-0.504-0.506-1.319-0.504-1.825,0c-0.505,0.506-0.505,1.328,0,1.832c0.506,0.506,1.321,0.506,1.825,0S27.466,7.86,26.962,7.354z  M9.973,24.354c-1.152-1.146-3.019-1.146-4.17-0.002c-1.151,1.146-1.152,3.012,0,4.16c1.152,1.148,3.018,1.15,4.168,0 C11.125,27.367,11.125,25.502,9.973,24.354z M27.251,27.631c0.658-0.662,0.658-1.734-0.002-2.396 c-0.658-0.658-1.726-0.658-2.385,0.004c-0.658,0.66-0.658,1.732,0,2.395C25.525,28.293,26.591,28.293,27.251,27.631z  M10.047,10.427c1.188-1.189,1.188-3.119,0-4.311c-1.188-1.189-3.115-1.189-4.305,0c-1.188,1.189-1.188,3.119,0.001,4.311 S8.858,11.618,10.047,10.427z"/>
  </symbol>

  <symbol id="icon-arrow-down" width="100%" viewBox="0 0 490 490" preserveAspectRatio="xMidYMid meet">
    <path d="M52.8,311.3c-12.8-12.8-12.8-33.4,0-46.2c6.4-6.4,14.7-9.6,23.1-9.6s16.7,3.2,23.1,9.6l113.4,113.4V32.7 c0-18,14.6-32.7,32.7-32.7c18,0,32.7,14.6,32.7,32.7v345.8L391,265.1c12.8-12.8,33.4-12.8,46.2,0c12.8,12.8,12.8,33.4,0,46.2 L268.1,480.4c-6.1,6.1-14.4,9.6-23.1,9.6c-8.7,0-17-3.4-23.1-9.6L52.8,311.3z"/>
  </symbol>

  <symbol id="icon-icon" width="100%" viewBox="0 0 26.349 26.35" preserveAspectRatio="xMidYMid meet">

  </symbol>

</svg>
