<svg xmlns="http://www.w3.org/2000/svg">
  
  <symbol id="icon-rotate" width="100%" viewBox="0 0 64 64" preserveAspectRatio="xMidYMid meet">
    <path d="M30,2c0,1.104,0.896,2,2,2c7.479,0,14.51,2.913,19.798,8.202C57.087,17.49,60,24.521,60,32c0,7.381-2.842,14.323-8,19.587 V46c0-1.104-0.896-2-2-2s-2,0.896-2,2v12h12c1.104,0,2-0.896,2-2s-0.896-2-2-2h-4.776C60.885,48.032,64,40.257,64,32 c0-8.547-3.329-16.583-9.374-22.627C48.583,3.329,40.547,0,32,0C30.896,0,30,0.896,30,2z"/>
    <path d="M9.374,54.627C15.417,60.671,23.453,64,32,64c1.104,0,2-0.896,2-2s-0.896-2-2-2c-7.479,0-14.51-2.913-19.798-8.202 C6.913,46.51,4,39.479,4,32c0-7.381,2.842-14.323,8-19.587V18c0,1.104,0.896,2,2,2s2-0.896,2-2V6H4C2.896,6,2,6.896,2,8 s0.896,2,2,2h4.776C3.115,15.968,0,23.743,0,32C0,40.547,3.329,48.583,9.374,54.627z"/>
  </symbol>
  
  <symbol id="icon-start" width="100%" viewBox="0 0 496.158 496.158" preserveAspectRatio="xMidYMid meet">
    <path d="M496.158,248.085c0-137.021-111.07-248.082-248.076-248.082C111.07,0.002,0,111.062,0,248.085 c0,137.002,111.07,248.071,248.083,248.071C385.088,496.155,496.158,385.086,496.158,248.085z"/>
    <path fill="currentcolor" d="M370.805,235.242L195.856,127.818c-4.776-2.934-11.061-3.061-15.951-0.322 c-4.979,2.785-8.071,8.059-8.071,13.762v214c0,5.693,3.083,10.963,8.046,13.752c2.353,1.32,5.024,2.02,7.725,2.02 c2.897,0,5.734-0.797,8.205-2.303l174.947-106.576c4.657-2.836,7.556-7.986,7.565-13.44 C378.332,243.258,375.452,238.096,370.805,235.242z"/>
  </symbol>
  
  <symbol id="icon-repeat" width="100%" viewBox="0 0 496.156 496.156" preserveAspectRatio="xMidYMid meet">
    <path d="M0,248.08C0,111.06,111.069,0.002,248.074,0.002c137.013,0,248.082,111.059,248.082,248.078 c0,137.005-111.069,248.074-248.082,248.074C111.069,496.154,0,385.085,0,248.08z"/>
    <g fill="currentcolor">
      <path d="M428.243,172.149c-10.348,0.023-20.694,0.054-31.042,0.077 c-23.272-52.177-68.95-89.871-126.649-98.91c-64.287-10.071-125.816,19.788-162.504,72.312 c-16.296,23.326,22.003,45.165,38.16,22.034c50.317-72.037,157.757-65.527,201.907,4.686c-9.559,0.022-19.118,0.046-28.678,0.068 c-2.674,0.008-4.574,1.197-5.749,2.877c-1.92,2.058-2.65,5.072-0.639,8.186c18.204,28.25,36.408,56.499,54.616,84.745 c3.061,4.747,9.663,4.708,12.696-0.046c18.062-28.338,36.126-56.675,54.188-85.013C437.538,178.48,433.602,172.135,428.243,172.149 z"/>
      <path d="M350.353,327.224c-49.927,71.49-156.108,65.63-200.886-3.049c9.161-0.022,18.322-0.046,27.484-0.068 c2.666-0.008,4.563-1.19,5.741-2.865c1.924-2.059,2.658-5.072,0.646-8.197c-18.2-28.246-36.405-56.499-54.609-84.741 c-3.056-4.751-9.662-4.712-12.695,0.046c-18.063,28.334-36.13,56.671-54.196,85.009c-2.987,4.689,0.948,11.032,6.308,11.017 c10.669-0.027,21.337-0.054,32.006-0.08c23.498,51.319,68.777,88.332,125.865,97.275c64.287,10.072,125.816-19.784,162.496-72.312 C404.806,325.928,366.508,304.09,350.353,327.224z"/>
    </g>
  </symbol>
  
  <symbol id="icon-icon" width="100%" viewBox="0 0 99 99" preserveAspectRatio="xMidYMid meet">
    
  </symbol>

</svg>
