<svg xmlns="http://www.w3.org/2000/svg">
  <symbol id="icon-rotate" width="100%" viewBox="0 0 64 64" preserveAspectRatio="xMidYMid meet">
    <path d="M30,2c0,1.104,0.896,2,2,2c7.479,0,14.51,2.913,19.798,8.202C57.087,17.49,60,24.521,60,32c0,7.381-2.842,14.323-8,19.587 V46c0-1.104-0.896-2-2-2s-2,0.896-2,2v12h12c1.104,0,2-0.896,2-2s-0.896-2-2-2h-4.776C60.885,48.032,64,40.257,64,32 c0-8.547-3.329-16.583-9.374-22.627C48.583,3.329,40.547,0,32,0C30.896,0,30,0.896,30,2z"/>
    <path d="M9.374,54.627C15.417,60.671,23.453,64,32,64c1.104,0,2-0.896,2-2s-0.896-2-2-2c-7.479,0-14.51-2.913-19.798-8.202 C6.913,46.51,4,39.479,4,32c0-7.381,2.842-14.323,8-19.587V18c0,1.104,0.896,2,2,2s2-0.896,2-2V6H4C2.896,6,2,6.896,2,8 s0.896,2,2,2h4.776C3.115,15.968,0,23.743,0,32C0,40.547,3.329,48.583,9.374,54.627z"/>
  </symbol>
  <symbol id="icon-question-mark" width="100%" viewBox="0 0 20 20" preserveAspectRatio="xMidYMid meet">
    <path d="M 9.9804688 0 A 10 10 0 0 0 0 10 A 10 10 0 0 0 10 20 A 10 10 0 0 0 20 10 A 10 10 0 0 0 10 0 A 10 10 0 0 0 9.9804688 0 z M 10.017578 3.0273438 C 11.124978 3.0273438 11.986263 3.3261681 12.601562 3.9238281 C 13.222663 4.5156181 13.533203 5.3300775 13.533203 6.3671875 C 13.533203 7.3925775 13.058575 8.4023475 12.109375 9.3984375 L 11.152344 10.347656 C 10.724544 10.822256 10.509766 11.505884 10.509766 12.396484 L 8.8847656 12.396484 C 8.8964856 11.699184 8.9746138 11.148441 9.1210938 10.744141 C 9.2675838 10.339841 9.5663881 9.8906275 10.017578 9.3984375 L 11.167969 8.2128906 C 11.660169 7.6562506 11.90625 7.0585919 11.90625 6.4199219 C 11.90625 5.8046919 11.746128 5.3242156 11.423828 4.9785156 C 11.101628 4.6269456 10.632778 4.4511719 10.017578 4.4511719 C 9.4198981 4.4511719 8.9394519 4.6093812 8.5761719 4.9257812 C 8.2128919 5.2421913 8.03125 5.6679619 8.03125 6.2011719 L 6.4042969 6.2011719 C 6.4160169 5.2519519 6.7539056 4.48633 7.4160156 3.90625 C 8.0839756 3.32031 8.9511481 3.0273438 10.017578 3.0273438 z M 9.7714844 14.251953 C 10.087904 14.251953 10.328087 14.341837 10.492188 14.523438 C 10.656187 14.699237 10.738281 14.917941 10.738281 15.181641 C 10.738281 15.445341 10.656187 15.665997 10.492188 15.841797 C 10.328087 16.011697 10.087904 16.097656 9.7714844 16.097656 C 9.4550844 16.097656 9.2148413 16.011697 9.0507812 15.841797 C 8.8925813 15.665997 8.8144531 15.445341 8.8144531 15.181641 C 8.8144531 14.917941 8.8925813 14.699237 9.0507812 14.523438 C 9.2148413 14.341837 9.4550844 14.251953 9.7714844 14.251953 z"/>
  </symbol>
  <symbol id="icon-star" width="100%" viewBox="0 0 20 20" preserveAspectRatio="xMidYMid meet">
    <path d="M9.99 0C4.47 0 0 4.48 0 10C0 15.52 4.47 20 9.99 20C15.52 20 20 15.52 20 10C20 4.48 15.52 0 9.99 0ZM14.23 16L10 13.45L5.77 16L6.89 11.19L3.16 7.96L8.08 7.54L10 3L11.92 7.53L16.84 7.95L13.11 11.18L14.23 16Z"/>
  </symbol>
  <symbol id="icon-gear" width="100%" viewBox="0 0 20 20" preserveAspectRatio="xMidYMid meet">
    <path d="M 9.9804688 0 A 10 10 0 0 0 0 10 A 10 10 0 0 0 10 20 A 10 10 0 0 0 20 10 A 10 10 0 0 0 10 0 A 10 10 0 0 0 9.9804688 0 z M 8.7089844 3.5996094 L 11.269531 3.5996094 C 11.429531 3.5996094 11.563891 3.7110937 11.587891 3.8710938 L 11.828125 5.5683594 C 12.220125 5.7283594 12.572203 5.9354062 12.908203 6.1914062 L 14.5 5.5527344 C 14.644 5.5047344 14.812578 5.5513125 14.892578 5.6953125 L 16.171875 7.9121094 C 16.243875 8.0481094 16.211797 8.2243125 16.091797 8.3203125 L 14.740234 9.3769531 C 14.772234 9.5769531 14.789062 9.78401 14.789062 10 C 14.789062 10.216 14.772047 10.423047 14.748047 10.623047 L 16.083984 11.679688 C 16.211984 11.775687 16.244063 11.943891 16.164062 12.087891 L 14.884766 14.304688 C 14.804766 14.448687 14.636188 14.503266 14.492188 14.447266 L 12.900391 13.808594 C 12.572391 14.056594 12.212312 14.271641 11.820312 14.431641 L 11.580078 16.128906 C 11.564078 16.288906 11.429531 16.400391 11.269531 16.400391 L 8.7089844 16.400391 C 8.5489844 16.400391 8.4206719 16.288906 8.3886719 16.128906 L 8.1484375 14.431641 C 7.7564375 14.271641 7.4043594 14.064594 7.0683594 13.808594 L 5.4765625 14.447266 C 5.3325625 14.495266 5.1639844 14.448688 5.0839844 14.304688 L 3.8046875 12.087891 C 3.7326875 11.951891 3.7647656 11.775688 3.8847656 11.679688 L 5.2363281 10.623047 C 5.2043281 10.423047 5.1894531 10.208 5.1894531 10 C 5.1894531 9.79201 5.2121406 9.5769531 5.2441406 9.3769531 L 3.8925781 8.3203125 C 3.7645781 8.2243125 3.7325 8.0561094 3.8125 7.9121094 L 5.0917969 5.6953125 C 5.1717969 5.5513125 5.340375 5.4967344 5.484375 5.5527344 L 7.0761719 6.1914062 C 7.4041719 5.9434062 7.76425 5.7283594 8.15625 5.5683594 L 8.3964844 3.8710938 C 8.4204844 3.7110937 8.5489844 3.5996094 8.7089844 3.5996094 z M 9.9882812 7.5996094 C 8.6682812 7.5996094 7.5878906 8.68001 7.5878906 10 C 7.5878906 11.32 8.6682812 12.400391 9.9882812 12.400391 C 11.308311 12.400391 12.388672 11.32 12.388672 10 C 12.388672 8.68001 11.308311 7.5996094 9.9882812 7.5996094 z"/>
  </symbol>
  <symbol id="icon-cross" width="100%" viewBox="0 0 97 97" preserveAspectRatio="xMidYMid meet">
    <path d="M96.625 55.375H55.375V96.625H41.625V55.375H0.375V41.625H41.625V0.375H55.375V41.625H96.625V55.375Z"/>
  </symbol>
  <symbol id="icon-avatar" width="100%" viewBox="0 0 612 612" preserveAspectRatio="xMidYMid meet">
    <path d="M306.001,325.988c90.563-0.005,123.147-90.682,131.679-165.167C448.188,69.06,404.799,0,306.001,0 c-98.782,0-142.195,69.055-131.679,160.82C182.862,235.304,215.436,325.995,306.001,325.988z"/>
    <path d="M550.981,541.908c-0.99-28.904-4.377-57.939-9.421-86.393c-6.111-34.469-13.889-85.002-43.983-107.465 c-17.404-12.988-39.941-17.249-59.865-25.081c-9.697-3.81-18.384-7.594-26.537-11.901c-27.518,30.176-63.4,45.962-105.186,45.964 c-41.774,0-77.652-15.786-105.167-45.964c-8.153,4.308-16.84,8.093-26.537,11.901c-19.924,7.832-42.461,12.092-59.863,25.081 c-30.096,22.463-37.873,72.996-43.983,107.465c-5.045,28.454-8.433,57.489-9.422,86.393 c-0.766,22.387,10.288,25.525,29.017,32.284c23.453,8.458,47.666,14.737,72.041,19.884c47.077,9.941,95.603,17.582,143.921,17.924 C540.694,567.435,551.747,564.297,550.981,541.908z"/>
  </symbol>
  <symbol id="icon-github" width="100%" viewBox="0 0 16 16" preserveAspectRatio="xMidYMid meet">
    <path fill-rule="evenodd" d="M8 0C3.58 0 0 3.58 0 8c0 3.54 2.29 6.53 5.47 7.59.4.07.55-.17.55-.38 0-.19-.01-.82-.01-1.49-2.01.37-2.53-.49-2.69-.94-.09-.23-.48-.94-.82-1.13-.28-.15-.68-.52-.01-.53.63-.01 1.08.58 1.23.82.72 1.21 1.87.87 2.33.66.07-.52.28-.87.51-1.07-1.78-.2-3.64-.89-3.64-3.95 0-.87.31-1.59.82-2.15-.08-.2-.36-1.02.08-2.12 0 0 .67-.21 2.2.82.64-.18 1.32-.27 2-.27.68 0 1.36.09 2 .27 1.53-1.04 2.2-.82 2.2-.82.44 1.1.16 1.92.08 2.12.51.56.82 1.27.82 2.15 0 3.07-1.87 3.75-3.65 3.95.29.25.54.73.54 1.48 0 1.07-.01 1.93-.01 2.2 0 .21.15.46.55.38A8.013 8.013 0 0016 8c0-4.42-3.58-8-8-8z"/>
  </symbol>
  <symbol id="icon-github2" viewBox="0 0 400 400" width="100%" preserveAspectRatio="xMidYMid meet">
    <path fill-rule="evenodd" d="M186.122 0.431 C 65.718 9.229,-19.683 121.126,3.905 239.184 C 25.517 347.350,131.065 417.747,239.184 396.104 C 347.400 374.442,417.679 269.060,396.098 160.816 C 376.490 62.465,285.744 -6.849,186.122 0.431 M214.490 32.654 C 302.118 40.623,367.551 112.164,367.551 200.000 C 367.551 260.166,337.247 313.686,285.755 344.458 C 276.139 350.205,253.238 360.408,249.955 360.408 C 249.867 360.408,249.795 352.464,249.794 342.755 C 249.792 314.928,247.203 306.267,236.337 297.730 L 233.810 295.745 239.456 295.037 C 289.377 288.785,315.663 265.608,322.011 222.245 C 326.378 192.419,321.438 169.989,306.605 152.297 C 303.748 148.890,303.804 149.097,304.884 145.958 C 309.072 133.785,308.626 118.051,303.670 103.148 L 301.980 98.066 299.868 97.812 C 289.294 96.542,272.088 102.930,253.297 115.103 C 248.878 117.965,249.565 117.883,243.188 116.318 C 216.923 109.871,184.404 109.878,158.624 116.337 C 152.411 117.894,153.457 118.113,146.799 113.861 C 131.748 104.251,117.134 98.490,105.918 97.746 C 99.920 97.349,99.980 97.306,98.003 103.383 C 93.021 118.696,92.645 133.512,96.918 146.141 L 97.918 149.099 95.873 151.386 C 84.650 163.939,78.910 179.753,78.477 199.318 C 77.201 256.882,105.123 288.489,163.135 295.151 L 167.699 295.675 164.231 298.920 C 153.824 308.657,151.864 316.240,151.845 346.837 C 151.840 355.016,151.682 360.816,151.463 360.816 C 150.687 360.816,138.820 356.564,134.701 354.810 C 80.102 331.561,41.784 281.740,33.686 223.469 C 20.356 127.547,89.971 40.692,186.735 32.520 C 190.672 32.187,210.408 32.283,214.490 32.654 "/>
  </symbol>
  <symbol id="icon-rs-school-js" viewBox="0 0 86 32" width="100%" preserveAspectRatio="xMidYMid meet">
    <path d="M48.781 1.158c-2.463 0.572-3.686 1.87-3.698 3.924-0.014 2.392 1.326 3.49 5.622 4.61 2.088 0.544 2.798 1.487 1.81 2.403-1.121 1.039-3.315 0.365-3.591-1.104-0.137-0.733-0.13-0.731-2.431-0.603l-2.039 0.113 0.098 0.642c0.151 0.99 0.968 2.518 1.664 3.114 2.063 1.765 7.744 1.584 9.689-0.31l0.569-0.554 0.109 0.644c0.4 2.369 2.806 4.595 5.574 5.157l0.889 0.181-0.525 0.688c-1.733 2.27-1.782 6.912-0.098 9.323 2.577 3.689 9.829 3.582 12.215-0.18l0.444-0.7v3.339h11.239v-3.59h-6.712v-10.459h-4.527l-0.009 1.6c-0.008 1.307-0.043 1.544-0.195 1.295-0.86-1.411-2.535-2.583-4.177-2.922l-0.885-0.183 0.898-0.675c2.794-2.1 4.534-5.931 4.087-8.998-1.175-8.060-12.785-8.185-17.207-0.186-0.285 0.515-0.528 0.953-0.54 0.973s-0.41-0.34-0.885-0.799c-0.985-0.954-1.776-1.303-4.465-1.969-2.502-0.62-3.014-1.055-2.173-1.846 0.8-0.752 2.542-0.265 2.934 0.821 0.23 0.636 0.188 0.63 2.848 0.454l1.538-0.102-0.098-0.613c-0.454-2.84-4.028-4.404-7.973-3.487zM0.937 8.273v7.024h4.527v-5.62h0.46c0.726 0 1.165 0.534 2.565 3.122l1.309 2.419 2.517 0.043c1.384 0.024 2.516 0.001 2.516-0.050 0-0.791-2.821-5.356-3.604-5.832l-0.429-0.261 0.866-0.453c3.211-1.681 2.603-6.497-0.916-7.252-0.444-0.095-2.693-0.166-5.292-0.166h-4.519v7.024zM69.476 2.472c7.065 1.844 6.418 11.756-1.004 15.375-7.562 3.687-14.301-2.366-10.707-9.616 2.097-4.23 7.461-6.868 11.71-5.758zM8.583 4.415c1.59 0.804 0.535 2.288-1.717 2.416l-1.402 0.080v-2.697l1.366 0.002c0.782 0.001 1.531 0.086 1.753 0.198zM66.977 5.657c-1.243 0.33-2.507 1.586-2.508 2.492-0.002 1.48 1.181 2.014 3.043 1.373 1.139-0.392 1.429-0.392 1.64 0.001 0.357 0.668-0.813 1.349-1.496 0.87-0.343-0.24-1.608 0.517-1.621 0.97-0.020 0.682 1.706 0.94 2.763 0.413 3.357-1.673 2.404-5.264-1.078-4.063-1.392 0.48-1.691 0.501-1.691 0.115 0-0.606 0.947-1.044 1.36-0.631 0.169 0.169 1.449-0.68 1.449-0.961 0-0.42-1.134-0.774-1.862-0.58zM61.938 9.025c-0.745 0.539-0.78 0.399 0.586 2.338 0.841 1.193 1.164 1.782 1.132 2.061-0.056 0.477-0.591 0.604-0.967 0.229-0.239-0.239-0.301-0.22-0.867 0.265-1.429 1.224 0.743 2.275 2.357 1.141 1.773-1.246 1.776-2.019 0.013-4.593-1.367-1.997-1.43-2.037-2.255-1.44zM4.638 17.643c-2.554 0.403-4.049 1.896-4.069 4.064-0.020 2.212 1.414 3.472 4.966 4.361 2.177 0.545 2.894 0.961 2.894 1.678 0 2.019-3.614 1.817-3.996-0.223-0.134-0.712-0.117-0.708-2.422-0.583l-2.044 0.111 0.102 0.64c0.466 2.934 2.172 4.155 5.973 4.274 3.014 0.094 4.050-0.198 5.366-1.514l0.901-0.901 0.331 0.447c1.915 2.59 8.384 2.764 10.508 0.282 0.621-0.725 1.318-2.091 1.389-2.72 0.050-0.443 0.036-0.451-1.857-1.025l-1.907-0.579-0.256 0.77c-0.872 2.625-4.165 2.655-4.888 0.045-0.246-0.887-0.216-3.006 0.056-3.919 0.656-2.207 3.427-2.66 4.551-0.743 0.469 0.8 0.343 0.785 2.471 0.304 2.026-0.458 1.939-0.377 1.477-1.372-1.832-3.942-7.991-4.867-11.257-1.692l-0.911 0.886-0.378-0.645c-0.942-1.608-3.913-2.434-6.998-1.946zM47.766 17.647c-1.729 0.3-3.437 1.388-4.402 2.803-0.258 0.379-0.265 0.348-0.273-1.133l-0.008-1.522h-4.527v4.839h-4.527v-4.839h-4.527v14.049h4.527v-5.62h4.527v5.62h4.527v-3.176l0.489 0.737c2.034 3.070 8.325 3.609 11.188 0.958 3.313-3.067 2.663-10.044-1.115-11.972-1.458-0.744-4.017-1.068-5.879-0.745zM7.176 20.525c0.261 0.135 0.567 0.501 0.733 0.877l0.285 0.646 3.050-0.147-0.1 0.796c-0.132 1.053-0.191 1.093-1.066 0.706-0.412-0.182-1.565-0.535-2.564-0.786-2.363-0.592-2.657-0.719-2.778-1.2-0.224-0.89 1.339-1.462 2.441-0.892zM50.443 21.077c2.312 0.642 2.78 5.948 0.636 7.21-1.601 0.942-3.627 0.14-4.102-1.625-0.944-3.507 0.805-6.324 3.466-5.585zM69.316 21.073c2.686 0.746 2.631 6.782-0.068 7.509-2.17 0.584-3.614-0.924-3.603-3.762 0.012-2.949 1.409-4.375 3.671-3.746z"/>
  </symbol>
</svg>
