<svg version="1.1" viewbox="0 0 40 40" xmlns="http://www.w3.org/2000/svg">
  <path fill="#f7f7f7" d="m20 0a20 20 0 0 0-20 20 20 20 0 0 0 20 20 20 20 0 0 0 20-20 20 20 0 0 0-20-20zm0.009766 5c4.0746 0 4.5831 0.017563 6.1895 0.09375 1.5947 0.070327 2.685 0.32805 3.6406 0.69727 0.985 0.38093 1.8238 0.89633 2.6562 1.7285 0.8384 0.8322 1.3494 1.6717 1.7188 2.668 0.3693 0.9494 0.62686 2.0446 0.69726 3.6387 0.0703 1.6 0.087891 2.1105 0.087891 6.1836s-0.017591 4.5817-0.087891 6.1816c-0.0704 1.5941-0.32796 2.6835-0.69726 3.6387-0.3811 0.9846-0.89797 1.824-1.7305 2.6562-0.8326 0.8322-1.6712 1.3476-2.6562 1.7285-0.9498 0.3692-2.0459 0.62696-3.6406 0.69726-1.6006 0.0703-2.1108 0.087891-6.1855 0.087891-4.0746 0-4.5831-0.017591-6.1836-0.087891-1.5947-0.0703-2.685-0.32806-3.6406-0.69726-0.98495-0.3809-1.8237-0.89632-2.6562-1.7285-0.83838-0.8322-1.3494-1.6698-1.7363-2.6602-0.36936-0.9494-0.62691-2.0466-0.69727-3.6406-0.070354-1.5999-0.087891-2.1105-0.087891-6.1836 0-4.073 0.017537-4.5817 0.087891-6.1875 0.070354-1.5941 0.32791-2.6834 0.69727-3.6387 0.38694-0.98457 0.89795-1.824 1.7363-2.6562 0.83252-0.83805 1.6713-1.3476 2.6621-1.7344 0.94978-0.36921 2.0459-0.62694 3.6406-0.69727 1.6006-0.070327 2.1108-0.087891 6.1855-0.087891zm0 2.7012c-4.0102 0-4.4854 0.017561-6.0625 0.087891-1.4598 0.06446-2.2575 0.3105-2.7852 0.51562-0.69767 0.27545-1.197 0.59756-1.7246 1.125-0.52179 0.52159-0.84945 1.0272-1.1191 1.7246-0.2052 0.52744-0.45114 1.3181-0.51562 2.7832-0.07035 1.5765-0.087891 2.0577-0.087891 6.0605-1e-7 4.0027 0.017541 4.4763 0.087891 6.0586 0.06449 1.4593 0.31042 2.2557 0.51562 2.7832 0.27555 0.6974 0.59735 1.1971 1.125 1.7246 0.52179 0.5216 1.0269 0.84964 1.7246 1.1191 0.52765 0.2052 1.3195 0.45112 2.7852 0.51562 1.5771 0.0703 2.0582 0.08789 6.0625 0.08789s4.4775-0.01759 6.0605-0.08789c1.4598-0.0645 2.2576-0.31042 2.7852-0.51562 0.6977-0.2754 1.197-0.5975 1.7246-1.125 0.5218-0.5216 0.84944-1.0272 1.1191-1.7246 0.2052-0.5274 0.45112-1.3181 0.51562-2.7832 0.0704-1.5765 0.087891-2.0578 0.087891-6.0605s-0.017491-4.4762-0.087891-6.0586c-0.0645-1.4593-0.31042-2.2558-0.51562-2.7832-0.2756-0.69741-0.5973-1.1972-1.125-1.7246-0.5218-0.52158-1.027-0.84955-1.7246-1.1191-0.5277-0.20512-1.3195-0.45116-2.7852-0.51562-1.5771-0.07033-2.0503-0.087891-6.0605-0.087891zm8.0137 2.4922c0.9941 0 1.7988 0.80512 1.7988 1.7988 0 0.99371-0.80473 1.7988-1.7988 1.7988-0.9941 0-1.8008-0.80512-1.8008-1.7988 0-0.99371 0.80669-1.7988 1.8008-1.7988zm-8.0137 2.1035c4.2564 0 7.709 3.4523 7.709 7.707 0 4.2547-3.4526 7.7051-7.709 7.7051s-7.7109-3.4504-7.7109-7.7051c0-4.2547 3.4545-7.707 7.7109-7.707zm0 2.707c-2.7614 0-5.002 2.2397-5.002 5 1e-6 2.7603 2.2406 4.998 5.002 4.998 2.7614 0 5-2.2377 5-4.998 0-2.7603-2.2386-5-5-5z"/>
</svg>
