<svg version="1.1" viewbox="0 0 40 40" xmlns="http://www.w3.org/2000/svg">
  <path fill="#f7f7f7" d="m20 0a20 20 0 0 0-20 20 20 20 0 0 0 20 20 20 20 0 0 0 20-20 20 20 0 0 0-20-20zm9.5039 8.5c0.88035 0.017078 1.18 0.8284 0.88867 2.2266l-3.7402 18.664c-0.285 1.5144-1.0056 2.047-2.3301 1.2207l-5.7031-4.5-3.3301 3.3203c-0.40897 0.3729-1.0502 0.36944-1.4004-0.38086l0.37695-4.8594 12.037-11.482c0.674-0.63021-0.1098-0.78386-0.875-0.21094l-14.014 9.127-5.7949-1.9414c-0.99685-0.4646-0.69038-1.3206 0.21875-1.748l22.592-9.1797c0.42207-0.17856 0.78077-0.26155 1.0742-0.25586z"/>
</svg>
