<svg version="1.1" viewbox="0 0 40 40" xmlns="http://www.w3.org/2000/svg">
  <path fill="#f7f7f7" d="m20 0a20 20 0 0 0-20 20 20 20 0 0 0 20 20 20 20 0 0 0 20-20 20 20 0 0 0-20-20zm0.81055 7.9512c5.6662 0 9.3954 4.1 9.4004 8.5-1e-6 5.825-3.2347 10.172-8.0059 10.172-1.6037 0-3.1062-0.86646-3.625-1.8477 0 0-0.85992 3.4162-1.0449 4.0762-0.64 2.33-2.5334 4.6681-2.6797 4.8594-0.10125 0.1337-0.32836 0.087862-0.34961-0.085938-0.04375-0.2975-0.52523-3.2406 0.041016-5.6406 0.28375-1.205 1.9102-8.0879 1.9102-8.0879s-0.47656-0.94646-0.47656-2.3477c0-2.2 1.279-3.8398 2.8652-3.8398 1.3462 0 2 1.0116 2 2.2266 0 1.355-0.8643 3.3819-1.3105 5.2656-0.37375 1.575 0.788 2.8594 2.3418 2.8594 2.8112 0 4.7051-3.6107 4.7051-7.8906 0-3.2475-2.1896-5.6855-6.1758-5.6855-4.5013 0-7.3066 3.3555-7.3066 7.1055 0 1.2912 0.38172 2.2083 0.98047 2.9121 0.2725 0.325 0.31219 0.45552 0.21094 0.82422-0.07375 0.2738-0.23398 0.93411-0.30274 1.1953-0.09875 0.375-0.40289 0.50914-0.74414 0.36914-2.07-0.845-3.0391-3.1149-3.0391-5.6699 0-4.215 3.5555-9.2695 10.605-9.2695z"/>
</svg>
