<svg version="1.1" viewBox="0 0 69 60" xmlns="http://www.w3.org/2000/svg">
  <path fill="#f7f7f7" d="m6.3948 2.446c-2.23 4.709-2.7375 14.023-1.03 18.9 0.3703 1.0578 0.7637 2.3264 0.8743 2.8194 0.26792 1.1961 3.7485 9.2952 5.1444 11.972 1.3701 2.6265 1.3447 2.6527-1.2831 1.3167-3.7798-1.9215-6.7529-5.8715-8.05-10.695-0.91927-3.4185-2.0464-3.4816-1.9731-0.1105 0.12793 5.8801 5.0979 12.165 12.511 15.822 2.9406 1.4503 2.0897 0.2978 8.6585 11.732 2.799 4.8723 2.9341 5.0284 4.3505 5.0284 1.7589 0 2.0099-0.3864 2.9981-4.6153 1.0019-4.2876 2.1275-8.008 3.3336-11.019l0.8659-2.1618-0.9415-1.2916c-0.5178-0.7105-1.0553-1.2929-1.194-1.2943-0.4645-0.0048-2.5724 4.7608-3.8947 8.8047l-1.3077 3.9997-1.5542-2.2688c-1.4404-2.1033-5.9507-10.436-7.0643-13.052-3.9914-9.3766-2.3596-20.718 3.4644-24.08 2.0539-1.1858 1.6766-2.6432-0.4855-1.8754-4.4228 1.5707-8.4306 8.2734-8.8587 14.816-0.0969 1.4801-1.2129-1.1313-2.335-5.4637-1.1513-4.4452-1.2509-13.052-0.1883-16.258 0.95358-2.8773-0.75635-3.7356-2.0405-1.0242zm53.298-1.1362c-0.1193 0.29014-0.0299 1.5419 0.1985 2.782 1.2126 6.5826 0.879 12.534-0.9994 17.831-1.3078 3.6882-1.8188 4.4732-1.8272 2.8073-0.0275-5.3666-3.7504-11.88-7.9919-13.982-3.1511-1.5614-3.4459-0.4806-0.5553 2.0362 8.0374 6.9983 6.3347 21.124-4.4144 36.619l-1.5879 2.289-0.5521-1.9044c-1.4805-5.1067-1.9898-6.4193-3.9139-10.088l-2.0731-3.9532 1.6667-2.0179c0.9167-1.1098 2.7911-2.6975 4.1654-3.5282s2.4341-1.6918 2.355-1.9135c-0.497-1.3948-4.2259 0.1217-7.7116 3.1361l-2.4213 2.0939-2.1462-1.9223c-2.3026-2.0624-6.0265-4.0511-7.1911-3.8401-1.2418 0.225-1.089 1.0225 0.3243 1.693 6.5548 3.1099 11.224 11.377 14.538 25.744 0.837 3.6274 1.1256 4.0385 2.8362 4.0385 1.4073 0 1.5652-0.1694 3.7677-4.0385 1.3577-2.3851 4.8915-8.3362 6.1831-10.413 0.4923-0.7916 1.7665-1.674 3.8577-2.6714 6.1306-2.9243 10.937-8.8171 11.906-14.598 0.6842-4.0814-0.895-4.6923-2.0075-0.7764-1.3903 4.8944-4.7803 9.2912-8.5772 11.125-1.8788 0.9075-1.9019 0.7315-0.3278-2.5119 7.1291-14.689 8.5407-24.942 4.5318-32.914-0.6862-1.3646-1.7033-1.9267-2.0332-1.1238z"/>
</svg>
