<svg version="1.1" id="Layer_1" xmlns="http://www.w3.org/2000/svg" x="0" y="0" viewBox="0 0 512 512" xml:space="preserve"><circle cx="256" cy="256" r="197.161" fill="#ffd500"/><g fill="#3d3d3d"><path d="M256 463.484c-114.407 0-207.484-93.077-207.484-207.484S141.593 48.516 256 48.516 463.484 141.593 463.484 256 370.407 463.484 256 463.484zm0-394.323C152.977 69.161 69.161 152.977 69.161 256S152.977 442.839 256 442.839 442.839 359.023 442.839 256 359.023 69.161 256 69.161zm0-33.032c-5.701 0-10.323-4.621-10.323-10.323V10.323C245.677 4.621 250.299 0 256 0c5.701 0 10.323 4.621 10.323 10.323v15.484c0 5.701-4.622 10.322-10.323 10.322zm-88.087 17.526c-4.051 0-7.894-2.4-9.541-6.375l-5.925-14.305c-2.181-5.268.32-11.305 5.587-13.486 5.266-2.183 11.305.32 13.486 5.587l5.925 14.305c2.181 5.268-.32 11.305-5.587 13.486-1.291.534-2.63.788-3.945.788z"/><path d="M92.97 103.293a10.286 10.286 0 01-7.299-3.023L66.98 81.579c-4.031-4.031-4.031-10.567 0-14.599 4.031-4.031 10.567-4.031 14.599 0l18.691 18.691c4.031 4.031 4.031 10.567 0 14.599a10.293 10.293 0 01-7.3 3.023zm-49.645 74.941c-1.316 0-2.654-.253-3.946-.789l-14.305-5.925c-5.268-2.181-7.769-8.22-5.587-13.486 2.182-5.268 8.222-7.767 13.486-5.587l14.305 5.925c5.268 2.181 7.769 8.22 5.587 13.486-1.645 3.976-5.49 6.376-9.54 6.376zm-17.519 88.089H10.323C4.621 266.323 0 261.701 0 256c0-5.701 4.621-10.323 10.323-10.323h15.484c5.701 0 10.323 4.621 10.323 10.323-.001 5.701-4.622 10.323-10.324 10.323zm3.222 94.019c-4.051 0-7.894-2.4-9.541-6.375-2.182-5.268.32-11.305 5.587-13.486l14.305-5.925c5.266-2.182 11.305.32 13.486 5.587 2.181 5.267-.32 11.305-5.587 13.486l-14.305 5.925a10.285 10.285 0 01-3.945.788zm53.251 79.701a10.29 10.29 0 01-7.299-3.023c-4.031-4.031-4.031-10.567 0-14.599l10.949-10.949c4.031-4.031 10.567-4.031 14.599 0 4.031 4.031 4.031 10.567 0 14.599L89.579 437.02a10.293 10.293 0 01-7.3 3.023zm74.518 65.769c-1.316 0-2.654-.253-3.946-.789-5.268-2.181-7.768-8.22-5.587-13.486l10.94-26.412c2.181-5.268 8.221-7.768 13.486-5.587 5.268 2.181 7.768 8.22 5.587 13.486l-10.939 26.413c-1.646 3.976-5.491 6.375-9.541 6.375zM256 512c-5.701 0-10.323-4.621-10.323-10.323v-15.484c0-5.701 4.621-10.323 10.323-10.323 5.701 0 10.323 4.621 10.323 10.323v15.484c0 5.702-4.622 10.323-10.323 10.323zm94.021-18.698c-4.051 0-7.894-2.4-9.541-6.375l-5.925-14.305c-2.181-5.268.32-11.305 5.587-13.486 5.266-2.184 11.305.32 13.486 5.587l5.925 14.305c2.181 5.268-.32 11.305-5.587 13.486-1.291.535-2.63.788-3.945.788zm79.7-53.259a10.29 10.29 0 01-7.299-3.023l-10.949-10.949c-4.031-4.031-4.031-10.567 0-14.599 4.031-4.031 10.567-4.031 14.599 0l10.949 10.949c4.031 4.031 4.031 10.567 0 14.599a10.298 10.298 0 01-7.3 3.023zm65.615-74.58c-1.316 0-2.654-.253-3.946-.789l-26.27-10.882c-5.268-2.181-7.769-8.22-5.587-13.486 2.182-5.267 8.221-7.768 13.486-5.587l26.27 10.882c5.268 2.181 7.769 8.22 5.587 13.486a10.322 10.322 0 01-9.54 6.376zm6.341-99.14h-15.484c-5.701 0-10.323-4.621-10.323-10.323 0-5.701 4.621-10.323 10.323-10.323h15.484c5.701 0 10.323 4.621 10.323 10.323 0 5.701-4.621 10.323-10.323 10.323zm-33.002-88.089c-4.051 0-7.894-2.4-9.541-6.375-2.182-5.268.32-11.305 5.587-13.486l14.305-5.925c5.265-2.182 11.305.32 13.486 5.587 2.181 5.267-.32 11.305-5.587 13.486l-14.305 5.925a10.28 10.28 0 01-3.945.788zM456.258 66.065a10.286 10.286 0 01-7.299-3.023c-4.031-4.031-4.031-10.567 0-14.599l3.559-3.559c4.031-4.031 10.567-4.031 14.599 0 4.031 4.031 4.031 10.567 0 14.599l-3.559 3.559a10.295 10.295 0 01-7.3 3.023zm-36.615 36.616a10.288 10.288 0 01-7.299-3.023c-4.031-4.031-4.032-10.567 0-14.598l13.906-13.907c4.031-4.031 10.567-4.032 14.598 0 4.031 4.032 4.032 10.567 0 14.598l-13.906 13.906a10.295 10.295 0 01-7.299 3.024zm-75.556-49.026c-1.316 0-2.654-.253-3.946-.789-5.268-2.181-7.768-8.22-5.587-13.486l5.925-14.305c2.182-5.268 8.222-7.769 13.486-5.587 5.268 2.181 7.768 8.22 5.587 13.486l-5.925 14.305a10.324 10.324 0 01-9.54 6.376z"/></g></svg>