<svg xmlns="http://www.w3.org/2000/svg" viewBox="0 0 512 512"><path d="M219.793 256c0-106.304 77.081-194.595 178.399-212.056-36.48-21.438-78.971-33.745-124.344-33.745-135.752 0-245.8 110.049-245.8 245.801s110.048 245.801 245.801 245.801c45.372 0 87.863-12.307 124.344-33.745-101.319-17.461-178.4-105.752-178.4-212.056z" fill="#ffd500"/><g fill="#3d3d3d"><path d="M399.924 458.005C301.459 441.035 229.992 356.08 229.992 256S301.459 70.965 399.924 53.995a10.2 10.2 0 003.436-18.845C364.227 12.155 319.443 0 273.849 0 205.468 0 141.181 26.628 92.83 74.981 44.477 123.333 17.849 187.619 17.849 256S44.477 388.667 92.83 437.019C141.181 485.372 205.468 512 273.849 512c45.595 0 90.378-12.155 129.511-35.151a10.199 10.199 0 00-3.436-18.844zm-126.075 33.597c-129.911 0-235.602-105.69-235.602-235.602S143.937 20.398 273.849 20.398c32.902 0 65.338 6.873 95.167 20.039-40.885 12.529-77.747 36.647-105.786 69.61-34.587 40.663-53.636 92.496-53.636 145.953s19.049 105.29 53.636 145.953c28.039 32.963 64.902 57.081 105.786 69.61-29.829 13.165-62.266 20.039-95.167 20.039z"/><path d="M77.402 268.615c-.264-4.17-.398-8.415-.398-12.615 0-5.632-4.567-10.199-10.199-10.199S56.606 250.368 56.606 256c0 4.627.148 9.305.438 13.903.342 5.402 4.829 9.556 10.17 9.556.216 0 .434-.007.654-.02 5.619-.356 9.888-5.201 9.534-10.824zm85.913 150.291c-32.255-21.931-57.072-52.536-71.769-88.507-2.13-5.214-8.08-7.714-13.299-5.584-5.214 2.131-7.714 8.085-5.584 13.299 16.218 39.696 43.599 73.466 79.182 97.66a10.15 10.15 0 005.726 1.765c3.263 0 6.47-1.564 8.443-4.465 3.167-4.657 1.958-11.001-2.699-14.168zm290.04-164.946v-16.319h16.319c5.632 0 10.199-4.567 10.199-10.199s-4.567-10.199-10.199-10.199h-16.319v-16.319c0-5.632-4.567-10.199-10.199-10.199s-10.199 4.567-10.199 10.199v16.319h-16.319c-5.632 0-10.199 4.567-10.199 10.199s4.567 10.199 10.199 10.199h16.319v16.319c0 5.632 4.567 10.199 10.199 10.199 5.631 0 10.199-4.567 10.199-10.199zm-101.482 97.913c5.632 0 10.199-4.567 10.199-10.199v-10.709h10.709c5.632 0 10.199-4.567 10.199-10.199s-4.567-10.199-10.199-10.199h-10.709v-10.709c0-5.632-4.567-10.199-10.199-10.199s-10.199 4.567-10.199 10.199v10.709h-10.709c-5.632 0-10.199 4.567-10.199 10.199s4.567 10.199 10.199 10.199h10.709v10.709c-.001 5.631 4.567 10.199 10.199 10.199zm132.079 6.119h-5.1v-5.1c0-5.632-4.567-10.199-10.199-10.199s-10.199 4.567-10.199 10.199v5.1h-5.1c-5.632 0-10.199 4.567-10.199 10.199s4.567 10.199 10.199 10.199h5.1v5.1c0 5.632 4.567 10.199 10.199 10.199s10.199-4.567 10.199-10.199v-5.1h5.1c5.632 0 10.199-4.567 10.199-10.199s-4.567-10.199-10.199-10.199z"/></g></svg>