<svg xmlns="http://www.w3.org/2000/svg" preserveAspectRatio="xMidYMid meet">

  <symbol id="prev" viewBox="0 0 512 512" width="100%" height="auto">
    <path d="M256,0C114.618,0,0,114.618,0,256s114.618,256,256,256s256-114.618,256-256S397.382,0,256,0z M256,469.333 c-117.818,0-213.333-95.515-213.333-213.333S138.182,42.667,256,42.667S469.333,138.182,469.333,256S373.818,469.333,256,469.333 z"/>
    <path d="M313.752,134.248c-8.331-8.331-21.839-8.331-30.17,0L176.915,240.915c-8.331,8.331-8.331,21.839,0,30.17l106.667,106.667 c8.331,8.331,21.839,8.331,30.17,0c8.331-8.331,8.331-21.839,0-30.17L222.17,256l91.582-91.582 C322.083,156.087,322.083,142.58,313.752,134.248z"/>
  </symbol>

  <symbol id="next" viewBox="0 0 512 512" width="100%" height="auto">
    <path d="M256,0C114.618,0,0,114.618,0,256s114.618,256,256,256s256-114.618,256-256S397.382,0,256,0z M256,469.333 c-117.818,0-213.333-95.515-213.333-213.333S138.182,42.667,256,42.667S469.333,138.182,469.333,256S373.818,469.333,256,469.333z"/>
    <path d="M228.418,134.248c-8.331-8.331-21.839-8.331-30.17,0c-8.331,8.331-8.331,21.839,0,30.17L289.83,256l-91.582,91.582 c-8.331,8.331-8.331,21.839,0,30.17c8.331,8.331,21.839,8.331,30.17,0l106.667-106.667c8.331-8.331,8.331-21.839,0-30.17 L228.418,134.248z"/>
  </symbol>

  <symbol id="maximize" viewBox="0 0 512 512" width="100%" height="auto">
    <path d="M335.085,207.085L469.333,72.837V128c0,11.782,9.551,21.333,21.333,21.333S512,139.782,512,128V21.335 c0-0.703-0.037-1.406-0.106-2.107c-0.031-0.316-0.09-0.622-0.135-0.933c-0.054-0.377-0.098-0.755-0.172-1.13 c-0.071-0.358-0.169-0.705-0.258-1.056c-0.081-0.323-0.152-0.648-0.249-0.968c-0.104-0.345-0.234-0.678-0.355-1.015 c-0.115-0.319-0.22-0.641-0.35-0.956c-0.13-0.315-0.284-0.616-0.428-0.923c-0.153-0.324-0.297-0.651-0.467-0.969 c-0.158-0.294-0.337-0.574-0.508-0.86c-0.186-0.311-0.362-0.626-0.565-0.93c-0.211-0.316-0.447-0.613-0.674-0.917 c-0.19-0.253-0.366-0.513-0.568-0.76c-0.443-0.539-0.909-1.058-1.402-1.551c-0.004-0.004-0.007-0.008-0.011-0.012 c-0.004-0.004-0.008-0.006-0.011-0.01c-0.494-0.493-1.012-0.96-1.552-1.403c-0.247-0.203-0.507-0.379-0.761-0.569 c-0.303-0.227-0.6-0.462-0.916-0.673c-0.304-0.203-0.619-0.379-0.931-0.565c-0.286-0.171-0.565-0.35-0.859-0.508 c-0.318-0.17-0.644-0.314-0.969-0.467c-0.307-0.145-0.609-0.298-0.923-0.429c-0.315-0.13-0.637-0.236-0.957-0.35 c-0.337-0.121-0.669-0.25-1.013-0.354c-0.32-0.097-0.646-0.168-0.969-0.249c-0.351-0.089-0.698-0.187-1.055-0.258 c-0.375-0.074-0.753-0.119-1.13-0.173c-0.311-0.044-0.617-0.104-0.933-0.135C492.072,0.037,491.37,0,490.667,0H384 c-11.782,0-21.333,9.551-21.333,21.333c0,11.782,9.551,21.333,21.333,21.333h55.163L304.915,176.915 c-8.331,8.331-8.331,21.839,0,30.17S326.754,215.416,335.085,207.085z"/>
    <path d="M176.915,304.915L42.667,439.163V384c0-11.782-9.551-21.333-21.333-21.333C9.551,362.667,0,372.218,0,384v106.667 c0,0.703,0.037,1.405,0.106,2.105c0.031,0.315,0.09,0.621,0.135,0.933c0.054,0.377,0.098,0.756,0.173,1.13 c0.071,0.358,0.169,0.704,0.258,1.055c0.081,0.324,0.152,0.649,0.249,0.969c0.104,0.344,0.233,0.677,0.354,1.013 c0.115,0.32,0.22,0.642,0.35,0.957c0.13,0.315,0.284,0.616,0.429,0.923c0.153,0.324,0.297,0.651,0.467,0.969 c0.158,0.294,0.337,0.573,0.508,0.859c0.186,0.311,0.362,0.627,0.565,0.931c0.211,0.316,0.446,0.612,0.673,0.916 c0.19,0.254,0.366,0.514,0.569,0.761c0.443,0.54,0.91,1.059,1.403,1.552c0.004,0.004,0.006,0.008,0.01,0.011 c0.004,0.004,0.008,0.007,0.012,0.011c0.493,0.492,1.012,0.959,1.551,1.402c0.247,0.203,0.507,0.379,0.76,0.568 c0.304,0.227,0.601,0.463,0.917,0.674c0.303,0.203,0.618,0.379,0.93,0.565c0.286,0.171,0.565,0.35,0.86,0.508 c0.318,0.17,0.645,0.314,0.969,0.467c0.307,0.145,0.609,0.298,0.923,0.428c0.315,0.13,0.636,0.235,0.956,0.35 c0.337,0.121,0.67,0.25,1.015,0.355c0.32,0.097,0.645,0.168,0.968,0.249c0.351,0.089,0.698,0.187,1.056,0.258 c0.375,0.074,0.753,0.118,1.13,0.172c0.311,0.044,0.618,0.104,0.933,0.135c0.7,0.069,1.402,0.106,2.104,0.106 c0,0,0.001,0,0.001,0H128c11.782,0,21.333-9.551,21.333-21.333s-9.551-21.333-21.333-21.333H72.837l134.248-134.248 c8.331-8.331,8.331-21.839,0-30.17S185.246,296.584,176.915,304.915z"/>
    <path d="M507.736,503.425c0.226-0.302,0.461-0.598,0.671-0.913c0.204-0.304,0.38-0.62,0.566-0.932 c0.17-0.285,0.349-0.564,0.506-0.857c0.17-0.318,0.315-0.646,0.468-0.971c0.145-0.306,0.297-0.607,0.428-0.921 c0.13-0.315,0.236-0.637,0.35-0.957c0.121-0.337,0.25-0.669,0.354-1.013c0.097-0.32,0.168-0.646,0.249-0.969 c0.089-0.351,0.187-0.698,0.258-1.055c0.074-0.375,0.118-0.753,0.173-1.13c0.044-0.311,0.104-0.617,0.135-0.933 c0.069-0.701,0.106-1.404,0.106-2.107V384c0-11.782-9.551-21.333-21.333-21.333s-21.333,9.551-21.333,21.333v55.163 L335.085,304.915c-8.331-8.331-21.839-8.331-30.17,0s-8.331,21.839,0,30.17l134.248,134.248H384 c-11.782,0-21.333,9.551-21.333,21.333S372.218,512,384,512h106.667c0.703,0,1.405-0.037,2.105-0.106 c0.315-0.031,0.621-0.09,0.933-0.135c0.377-0.054,0.756-0.098,1.13-0.173c0.358-0.071,0.704-0.169,1.055-0.258 c0.324-0.081,0.649-0.152,0.969-0.249c0.344-0.104,0.677-0.233,1.013-0.354c0.32-0.115,0.642-0.22,0.957-0.35 c0.314-0.13,0.615-0.283,0.921-0.428c0.325-0.153,0.653-0.297,0.971-0.468c0.293-0.157,0.572-0.336,0.857-0.506 c0.312-0.186,0.628-0.363,0.932-0.566c0.315-0.211,0.611-0.445,0.913-0.671c0.255-0.191,0.516-0.368,0.764-0.571 c0.535-0.439,1.05-0.903,1.54-1.392c0.008-0.007,0.016-0.014,0.023-0.021s0.014-0.016,0.021-0.023 c0.488-0.49,0.952-1.004,1.392-1.54C507.368,503.941,507.545,503.68,507.736,503.425z"/>
    <path d="M72.837,42.667H128c11.782,0,21.333-9.551,21.333-21.333C149.333,9.551,139.782,0,128,0H21.333c0,0-0.001,0-0.001,0 c-0.702,0-1.405,0.037-2.104,0.106c-0.316,0.031-0.622,0.09-0.933,0.135c-0.377,0.054-0.755,0.098-1.13,0.172 c-0.358,0.071-0.705,0.169-1.056,0.258c-0.323,0.081-0.648,0.152-0.968,0.249c-0.345,0.104-0.678,0.234-1.015,0.355 c-0.319,0.115-0.641,0.22-0.956,0.35c-0.315,0.131-0.618,0.284-0.925,0.43c-0.323,0.152-0.65,0.296-0.967,0.466 c-0.295,0.158-0.575,0.338-0.862,0.509C10.106,3.215,9.791,3.39,9.488,3.593c-0.317,0.212-0.615,0.448-0.92,0.676 C8.316,4.458,8.057,4.633,7.812,4.835C6.725,5.727,5.727,6.725,4.835,7.812C4.633,8.057,4.458,8.316,4.269,8.569 c-0.228,0.305-0.464,0.603-0.676,0.92c-0.203,0.303-0.378,0.617-0.564,0.928c-0.171,0.286-0.351,0.567-0.509,0.862 c-0.17,0.317-0.313,0.643-0.466,0.967c-0.145,0.307-0.299,0.61-0.43,0.925c-0.13,0.315-0.235,0.636-0.35,0.956 c-0.121,0.337-0.25,0.67-0.355,1.015c-0.097,0.32-0.168,0.645-0.249,0.968c-0.089,0.351-0.187,0.698-0.258,1.056 c-0.074,0.375-0.118,0.753-0.172,1.13c-0.044,0.311-0.104,0.618-0.135,0.933C0.037,19.928,0,20.63,0,21.333V128 c0,11.782,9.551,21.333,21.333,21.333c11.782,0,21.333-9.551,21.333-21.333V72.837l134.248,134.248 c8.331,8.331,21.839,8.331,30.17,0s8.331-21.839,0-30.17L72.837,42.667z"/>
  </symbol>

  <symbol id="minimize" viewBox="0 0 512 512" width="100%" height="auto">
    <path d="M320.106,172.772c0.031,0.316,0.09,0.622,0.135,0.933c0.054,0.377,0.098,0.755,0.172,1.13 c0.071,0.358,0.169,0.705,0.258,1.056c0.081,0.323,0.152,0.648,0.249,0.968c0.104,0.345,0.234,0.678,0.355,1.015 c0.115,0.319,0.22,0.641,0.35,0.956c0.131,0.315,0.284,0.618,0.43,0.925c0.152,0.323,0.296,0.65,0.466,0.967 c0.158,0.294,0.337,0.574,0.508,0.86c0.186,0.311,0.362,0.626,0.565,0.93c0.211,0.316,0.447,0.613,0.674,0.917 c0.19,0.253,0.365,0.513,0.568,0.759c0.892,1.087,1.889,2.085,2.977,2.977c0.246,0.202,0.506,0.378,0.759,0.567 c0.304,0.228,0.601,0.463,0.918,0.675c0.303,0.203,0.618,0.379,0.929,0.565c0.286,0.171,0.566,0.351,0.861,0.509 c0.317,0.17,0.644,0.314,0.968,0.466c0.307,0.145,0.609,0.298,0.924,0.429c0.315,0.13,0.637,0.236,0.957,0.35 c0.337,0.121,0.669,0.25,1.013,0.354c0.32,0.097,0.646,0.168,0.969,0.249c0.351,0.089,0.698,0.187,1.055,0.258 c0.375,0.074,0.753,0.119,1.13,0.173c0.311,0.044,0.617,0.104,0.932,0.135c0.7,0.069,1.403,0.106,2.105,0.106H448 c11.782,0,21.333-9.551,21.333-21.333c0-11.782-9.551-21.333-21.333-21.333h-55.163L505.752,36.418 c8.331-8.331,8.331-21.839,0-30.17c-8.331-8.331-21.839-8.331-30.17,0L362.667,119.163V64c0-11.782-9.551-21.333-21.333-21.333 C329.551,42.667,320,52.218,320,64v106.667c0,0,0,0.001,0,0.001C320,171.37,320.037,172.072,320.106,172.772z"/>
    <path d="M170.667,42.667c-11.782,0-21.333,9.551-21.333,21.333v55.163L36.418,6.248c-8.331-8.331-21.839-8.331-30.17,0 c-8.331,8.331-8.331,21.839,0,30.17l112.915,112.915H64c-11.782,0-21.333,9.551-21.333,21.333C42.667,182.449,52.218,192,64,192 h106.667c0.703,0,1.405-0.037,2.105-0.106c0.316-0.031,0.622-0.09,0.933-0.135c0.377-0.054,0.755-0.098,1.13-0.172 c0.358-0.071,0.705-0.169,1.056-0.258c0.323-0.081,0.648-0.152,0.968-0.249c0.345-0.104,0.678-0.234,1.015-0.355 c0.319-0.115,0.641-0.22,0.956-0.35c0.315-0.131,0.618-0.284,0.925-0.43c0.323-0.152,0.65-0.296,0.967-0.466 c0.295-0.158,0.575-0.338,0.862-0.509c0.311-0.185,0.625-0.361,0.928-0.564c0.317-0.212,0.615-0.448,0.92-0.676 c0.252-0.189,0.511-0.364,0.757-0.566c1.087-0.892,2.084-1.889,2.977-2.977c0.202-0.246,0.377-0.505,0.566-0.757 c0.228-0.305,0.464-0.603,0.676-0.92c0.203-0.303,0.378-0.617,0.564-0.928c0.171-0.286,0.351-0.567,0.509-0.862 c0.17-0.317,0.313-0.643,0.466-0.967c0.145-0.307,0.299-0.61,0.43-0.925c0.13-0.315,0.235-0.636,0.35-0.956 c0.121-0.337,0.25-0.67,0.355-1.015c0.097-0.32,0.168-0.645,0.249-0.968c0.089-0.351,0.187-0.698,0.258-1.056 c0.074-0.375,0.118-0.753,0.172-1.13c0.044-0.311,0.104-0.618,0.135-0.933c0.069-0.7,0.106-1.402,0.106-2.104 c0,0,0-0.001,0-0.001V64C192,52.218,182.449,42.667,170.667,42.667z"/>
    <path d="M191.894,339.228c-0.031-0.316-0.09-0.622-0.135-0.933c-0.054-0.377-0.098-0.755-0.172-1.13 c-0.071-0.358-0.169-0.705-0.258-1.056c-0.081-0.323-0.152-0.648-0.249-0.968c-0.104-0.345-0.234-0.678-0.355-1.015 c-0.115-0.319-0.22-0.641-0.35-0.956c-0.131-0.315-0.284-0.618-0.43-0.925c-0.152-0.323-0.296-0.65-0.466-0.967 c-0.158-0.295-0.338-0.575-0.509-0.862c-0.185-0.311-0.361-0.625-0.564-0.928c-0.212-0.317-0.448-0.615-0.676-0.92 c-0.189-0.252-0.364-0.511-0.566-0.757c-0.892-1.087-1.889-2.084-2.977-2.977c-0.246-0.202-0.505-0.377-0.757-0.566 c-0.305-0.228-0.603-0.464-0.92-0.676c-0.303-0.203-0.617-0.378-0.928-0.564c-0.286-0.171-0.567-0.351-0.862-0.509 c-0.317-0.17-0.643-0.313-0.967-0.466c-0.307-0.145-0.61-0.299-0.925-0.43c-0.315-0.13-0.636-0.235-0.956-0.35 c-0.337-0.121-0.67-0.25-1.015-0.355c-0.32-0.097-0.645-0.168-0.968-0.249c-0.351-0.089-0.698-0.187-1.056-0.258 c-0.375-0.074-0.753-0.118-1.13-0.172c-0.311-0.044-0.618-0.104-0.933-0.135c-0.7-0.069-1.403-0.106-2.105-0.106H64 c-11.782,0-21.333,9.551-21.333,21.333c0,11.782,9.551,21.333,21.333,21.333h55.163L6.248,475.582 c-8.331,8.331-8.331,21.839,0,30.17c8.331,8.331,21.839,8.331,30.17,0l112.915-112.915V448c0,11.782,9.551,21.333,21.333,21.333 c11.782,0,21.333-9.551,21.333-21.333V341.333c0,0,0-0.001,0-0.001C192,340.63,191.963,339.928,191.894,339.228z"/>
    <path d="M392.837,362.667H448c11.782,0,21.333-9.551,21.333-21.333c0-11.782-9.551-21.333-21.333-21.333H341.333 c-0.703,0-1.405,0.037-2.105,0.106c-0.315,0.031-0.621,0.09-0.932,0.135c-0.378,0.054-0.756,0.098-1.13,0.173 c-0.358,0.071-0.704,0.169-1.055,0.258c-0.324,0.081-0.649,0.152-0.969,0.249c-0.344,0.104-0.677,0.233-1.013,0.354 c-0.32,0.115-0.642,0.22-0.957,0.35c-0.315,0.131-0.617,0.284-0.924,0.429c-0.324,0.153-0.65,0.296-0.968,0.466 c-0.295,0.158-0.575,0.338-0.861,0.509c-0.311,0.186-0.626,0.362-0.929,0.565c-0.316,0.212-0.614,0.447-0.918,0.675 c-0.253,0.19-0.512,0.365-0.759,0.567c-1.087,0.892-2.085,1.889-2.977,2.977c-0.202,0.246-0.378,0.506-0.568,0.759 c-0.227,0.304-0.463,0.601-0.674,0.917c-0.203,0.304-0.379,0.619-0.565,0.93c-0.171,0.286-0.351,0.566-0.508,0.86 c-0.17,0.317-0.313,0.643-0.466,0.967c-0.145,0.307-0.299,0.61-0.43,0.925c-0.13,0.315-0.235,0.636-0.35,0.956 c-0.121,0.337-0.25,0.67-0.355,1.015c-0.097,0.32-0.168,0.645-0.249,0.968c-0.089,0.351-0.187,0.698-0.258,1.056 c-0.074,0.374-0.118,0.753-0.172,1.13c-0.044,0.311-0.104,0.618-0.135,0.933c-0.069,0.7-0.106,1.402-0.106,2.104 c0,0,0,0.001,0,0.001V448c0,11.782,9.551,21.333,21.333,21.333c11.782,0,21.333-9.551,21.333-21.333v-55.163l112.915,112.915 c8.331,8.331,21.839,8.331,30.17,0c8.331-8.331,8.331-21.839,0-30.17L392.837,362.667z"/>
  </symbol>

  <symbol id="moon" viewBox="0 0 512 512" width="100%" height="auto">
    <path style="fill:#FFD500;" d="M219.793,256c0-106.304,77.081-194.595,178.399-212.056c-36.48-21.438-78.971-33.745-124.344-33.745 C138.096,10.199,28.048,120.248,28.048,256s110.048,245.801,245.801,245.801c45.372,0,87.863-12.307,124.344-33.745 C296.874,450.595,219.793,362.304,219.793,256z"/>
    <g>
      <path style="fill:#3D3D3D;" d="M399.924,458.005C301.459,441.035,229.992,356.08,229.992,256S301.459,70.965,399.924,53.995 c4.218-0.727,7.534-4.011,8.302-8.223c0.768-4.211-1.176-8.453-4.866-10.622C364.227,12.155,319.443,0,273.849,0 C205.468,0,141.181,26.628,92.83,74.981C44.477,123.333,17.849,187.619,17.849,256S44.477,388.667,92.83,437.019 C141.181,485.372,205.468,512,273.849,512c45.595,0,90.378-12.155,129.511-35.151c3.69-2.169,5.634-6.411,4.866-10.622 C407.457,462.016,404.142,458.732,399.924,458.005z M273.849,491.602c-129.911,0-235.602-105.69-235.602-235.602 S143.937,20.398,273.849,20.398c32.902,0,65.338,6.873,95.167,20.039c-40.885,12.529-77.747,36.647-105.786,69.61 C228.643,150.71,209.594,202.543,209.594,256s19.049,105.29,53.636,145.953c28.039,32.963,64.902,57.081,105.786,69.61 C339.187,484.728,306.75,491.602,273.849,491.602z"/>
      <path style="fill:#3D3D3D;" d="M77.402,268.615c-0.264-4.17-0.398-8.415-0.398-12.615c0-5.632-4.567-10.199-10.199-10.199 S56.606,250.368,56.606,256c0,4.627,0.148,9.305,0.438,13.903c0.342,5.402,4.829,9.556,10.17,9.556c0.216,0,0.434-0.007,0.654-0.02 C73.487,279.083,77.756,274.238,77.402,268.615z"/>
      <path style="fill:#3D3D3D;" d="M163.315,418.906c-32.255-21.931-57.072-52.536-71.769-88.507c-2.13-5.214-8.08-7.714-13.299-5.584 c-5.214,2.131-7.714,8.085-5.584,13.299c16.218,39.696,43.599,73.466,79.182,97.66c1.756,1.194,3.751,1.765,5.726,1.765 c3.263,0,6.47-1.564,8.443-4.465C169.181,428.417,167.972,422.073,163.315,418.906z"/>
      <path style="fill:#3D3D3D;" d="M453.355,253.96v-16.319h16.319c5.632,0,10.199-4.567,10.199-10.199 c0-5.632-4.567-10.199-10.199-10.199h-16.319v-16.319c0-5.632-4.567-10.199-10.199-10.199c-5.632,0-10.199,4.567-10.199,10.199 v16.319h-16.319c-5.632,0-10.199,4.567-10.199,10.199c0,5.632,4.567,10.199,10.199,10.199h16.319v16.319 c0,5.632,4.567,10.199,10.199,10.199C448.787,264.159,453.355,259.592,453.355,253.96z"/>
      <path style="fill:#3D3D3D;" d="M351.873,351.873c5.632,0,10.199-4.567,10.199-10.199v-10.709h10.709 c5.632,0,10.199-4.567,10.199-10.199c0-5.632-4.567-10.199-10.199-10.199h-10.709v-10.709c0-5.632-4.567-10.199-10.199-10.199 c-5.632,0-10.199,4.567-10.199,10.199v10.709h-10.709c-5.632,0-10.199,4.567-10.199,10.199c0,5.632,4.567,10.199,10.199,10.199 h10.709v10.709C341.673,347.305,346.241,351.873,351.873,351.873z"/>
      <path style="fill:#3D3D3D;" d="M483.952,357.992h-5.1v-5.1c0-5.632-4.567-10.199-10.199-10.199 c-5.632,0-10.199,4.567-10.199,10.199v5.1h-5.1c-5.632,0-10.199,4.567-10.199,10.199c0,5.632,4.567,10.199,10.199,10.199h5.1v5.1 c0,5.632,4.567,10.199,10.199,10.199c5.632,0,10.199-4.567,10.199-10.199v-5.1h5.1c5.632,0,10.199-4.567,10.199-10.199 C494.151,362.559,489.584,357.992,483.952,357.992z"/>
    </g>
  </symbol>

  <symbol id="sun" viewBox="0 0 512 512" width="100%" height="auto">
    <circle style="fill:#FFD500;" cx="256" cy="256" r="197.161"/>
    <g>
      <path style="fill:#3D3D3D;" d="M256,463.484c-114.407,0-207.484-93.077-207.484-207.484S141.593,48.516,256,48.516 S463.484,141.593,463.484,256S370.407,463.484,256,463.484z M256,69.161C152.977,69.161,69.161,152.977,69.161,256 S152.977,442.839,256,442.839S442.839,359.023,442.839,256S359.023,69.161,256,69.161z"/>
      <path style="fill:#3D3D3D;" d="M256,36.129c-5.701,0-10.323-4.621-10.323-10.323V10.323C245.677,4.621,250.299,0,256,0 c5.701,0,10.323,4.621,10.323,10.323v15.484C266.323,31.508,261.701,36.129,256,36.129z"/>
      <path style="fill:#3D3D3D;" d="M167.913,53.655c-4.051,0-7.894-2.4-9.541-6.375l-5.925-14.305 c-2.181-5.268,0.32-11.305,5.587-13.486c5.266-2.183,11.305,0.32,13.486,5.587l5.925,14.305c2.181,5.268-0.32,11.305-5.587,13.486 C170.567,53.401,169.228,53.655,167.913,53.655z"/>
      <path style="fill:#3D3D3D;" d="M92.97,103.293c-2.642,0-5.284-1.007-7.299-3.023L66.98,81.579c-4.031-4.031-4.031-10.567,0-14.599 c4.031-4.031,10.567-4.031,14.599,0l18.691,18.691c4.031,4.031,4.031,10.567,0,14.599C98.254,102.285,95.613,103.293,92.97,103.293 z"/>
      <path style="fill:#3D3D3D;" d="M43.325,178.234c-1.316,0-2.654-0.253-3.946-0.789l-14.305-5.925 c-5.268-2.181-7.769-8.22-5.587-13.486c2.182-5.268,8.222-7.767,13.486-5.587l14.305,5.925c5.268,2.181,7.769,8.22,5.587,13.486 C51.22,175.834,47.375,178.234,43.325,178.234z"/>
      <path style="fill:#3D3D3D;" d="M25.806,266.323H10.323C4.621,266.323,0,261.701,0,256c0-5.701,4.621-10.323,10.323-10.323h15.484 c5.701,0,10.323,4.621,10.323,10.323C36.129,261.701,31.508,266.323,25.806,266.323z"/>
      <path style="fill:#3D3D3D;" d="M29.028,360.342c-4.051,0-7.894-2.4-9.541-6.375c-2.182-5.268,0.32-11.305,5.587-13.486 l14.305-5.925c5.266-2.182,11.305,0.32,13.486,5.587c2.181,5.267-0.32,11.305-5.587,13.486l-14.305,5.925 C31.682,360.089,30.344,360.342,29.028,360.342z"/>
      <path style="fill:#3D3D3D;" d="M82.279,440.043c-2.642,0-5.284-1.008-7.299-3.023c-4.031-4.031-4.031-10.567,0-14.599 l10.949-10.949c4.031-4.031,10.567-4.031,14.599,0c4.031,4.031,4.031,10.567,0,14.599L89.579,437.02 C87.563,439.035,84.922,440.043,82.279,440.043z"/>
      <path style="fill:#3D3D3D;" d="M156.797,505.812c-1.316,0-2.654-0.253-3.946-0.789c-5.268-2.181-7.768-8.22-5.587-13.486 l10.94-26.412c2.181-5.268,8.221-7.768,13.486-5.587c5.268,2.181,7.768,8.22,5.587,13.486l-10.939,26.413 C164.692,503.413,160.847,505.812,156.797,505.812z"/>
      <path style="fill:#3D3D3D;" d="M256,512c-5.701,0-10.323-4.621-10.323-10.323v-15.484c0-5.701,4.621-10.323,10.323-10.323 c5.701,0,10.323,4.621,10.323,10.323v15.484C266.323,507.379,261.701,512,256,512z"/>
      <path style="fill:#3D3D3D;" d="M350.021,493.302c-4.051,0-7.894-2.4-9.541-6.375l-5.925-14.305 c-2.181-5.268,0.32-11.305,5.587-13.486c5.266-2.184,11.305,0.32,13.486,5.587l5.925,14.305c2.181,5.268-0.32,11.305-5.587,13.486 C352.675,493.049,351.336,493.302,350.021,493.302z"/>
      <path style="fill:#3D3D3D;" d="M429.721,440.043c-2.642,0-5.284-1.008-7.299-3.023l-10.949-10.949 c-4.031-4.031-4.031-10.567,0-14.599c4.031-4.031,10.567-4.031,14.599,0l10.949,10.949c4.031,4.031,4.031,10.567,0,14.599 C435.004,439.035,432.362,440.043,429.721,440.043z"/>
      <path style="fill:#3D3D3D;" d="M495.336,365.463c-1.316,0-2.654-0.253-3.946-0.789l-26.27-10.882 c-5.268-2.181-7.769-8.22-5.587-13.486c2.182-5.267,8.221-7.768,13.486-5.587l26.27,10.882c5.268,2.181,7.769,8.22,5.587,13.486 C503.23,363.064,499.387,365.463,495.336,365.463z"/>
      <path style="fill:#3D3D3D;" d="M501.677,266.323h-15.484c-5.701,0-10.323-4.621-10.323-10.323c0-5.701,4.621-10.323,10.323-10.323 h15.484c5.701,0,10.323,4.621,10.323,10.323C512,261.701,507.379,266.323,501.677,266.323z"/>
      <path style="fill:#3D3D3D;" d="M468.675,178.234c-4.051,0-7.894-2.4-9.541-6.375c-2.182-5.268,0.32-11.305,5.587-13.486 l14.305-5.925c5.265-2.182,11.305,0.32,13.486,5.587c2.181,5.267-0.32,11.305-5.587,13.486l-14.305,5.925 C471.33,177.981,469.991,178.234,468.675,178.234z"/>
      <path style="fill:#3D3D3D;" d="M456.258,66.065c-2.642,0-5.284-1.007-7.299-3.023c-4.031-4.031-4.031-10.567,0-14.599l3.559-3.559 c4.031-4.031,10.567-4.031,14.599,0c4.031,4.031,4.031,10.567,0,14.599l-3.559,3.559C461.542,65.057,458.9,66.065,456.258,66.065z" />
      <path style="fill:#3D3D3D;" d="M419.643,102.681c-2.642,0-5.283-1.007-7.299-3.023c-4.031-4.031-4.032-10.567,0-14.598 l13.906-13.907c4.031-4.031,10.567-4.032,14.598,0c4.031,4.032,4.032,10.567,0,14.598l-13.906,13.906 C424.926,101.672,422.284,102.681,419.643,102.681z"/>
      <path style="fill:#3D3D3D;" d="M344.087,53.655c-1.316,0-2.654-0.253-3.946-0.789c-5.268-2.181-7.768-8.22-5.587-13.486 l5.925-14.305c2.182-5.268,8.222-7.769,13.486-5.587c5.268,2.181,7.768,8.22,5.587,13.486l-5.925,14.305 C351.981,51.255,348.137,53.655,344.087,53.655z"/>
    </g>
  </symbol>
</svg>
