<?xml version="1.0" encoding="UTF-8" standalone="no"?>
<!-- Created with Inkscape (http://www.inkscape.org/) -->

<svg
   xmlns:dc="http://purl.org/dc/elements/1.1/"
   xmlns:cc="http://creativecommons.org/ns#"
   xmlns:rdf="http://www.w3.org/1999/02/22-rdf-syntax-ns#"
   xmlns:svg="http://www.w3.org/2000/svg"
   xmlns="http://www.w3.org/2000/svg"
   xmlns:sodipodi="http://sodipodi.sourceforge.net/DTD/sodipodi-0.dtd"
   xmlns:inkscape="http://www.inkscape.org/namespaces/inkscape"
   version="1.1"
   id="svg5209"
   xml:space="preserve"
   width="816"
   height="1056"
   viewBox="0 0 816 1056"
   sodipodi:docname="low-poly-background.svg"
   inkscape:version="0.92.4 (5da689c313, 2019-01-14)"><metadata
     id="metadata5215"><rdf:RDF><cc:Work
         rdf:about=""><dc:format>image/svg+xml</dc:format><dc:type
           rdf:resource="http://purl.org/dc/dcmitype/StillImage" /><dc:title></dc:title></cc:Work></rdf:RDF></metadata><defs
     id="defs5213"><clipPath
       clipPathUnits="userSpaceOnUse"
       id="clipPath5225"><path
         d="M 0,792 H 612 V 0 H 0 Z"
         id="path5223"
         inkscape:connector-curvature="0" /></clipPath></defs><sodipodi:namedview
     pagecolor="#ffffff"
     bordercolor="#666666"
     borderopacity="1"
     objecttolerance="10"
     gridtolerance="10"
     guidetolerance="10"
     inkscape:pageopacity="0"
     inkscape:pageshadow="2"
     inkscape:window-width="1920"
     inkscape:window-height="1018"
     id="namedview5211"
     showgrid="false"
     inkscape:zoom="0.74116655"
     inkscape:cx="579.45763"
     inkscape:cy="505.62712"
     inkscape:window-x="-8"
     inkscape:window-y="-8"
     inkscape:window-maximized="1"
     inkscape:current-layer="g5217" /><g
     id="g5217"
     inkscape:groupmode="layer"
     inkscape:label="abstract-266-publicdomainvectors [Converted]"
     transform="matrix(1.3333333,0,0,-1.3333333,0,1056)"><g
       id="g5219"><g
         id="g5221"
         clip-path="url(#clipPath5225)"><path
           d="m -0.229,698.28 c 50.26,17.208 109.838,37.607 109.838,37.607 0,0 -60.679,29.128 -109.838,52.725 z"
           style="fill:#9f216b;fill-opacity:1;fill-rule:nonzero;stroke:none"
           id="path5227"
           inkscape:connector-curvature="0" /><path
           d="m -0.229,698.28 c 50.26,17.208 109.838,37.607 109.838,37.607 0,0 -60.679,29.128 -109.838,52.725 z"
           style="fill:none;stroke:#9f216b;stroke-width:0.80599999;stroke-linecap:butt;stroke-linejoin:miter;stroke-miterlimit:4;stroke-dasharray:none;stroke-opacity:1"
           id="path5229"
           inkscape:connector-curvature="0" /><path
           d="m -0.229,791.764 v -3.152 C 48.93,765.015 109.609,735.887 109.609,735.887 l 19.805,20.171 c 0,0 -57.852,18.793 -109.918,35.706 z"
           style="fill:#9e236b;fill-opacity:1;fill-rule:nonzero;stroke:none"
           id="path5231"
           inkscape:connector-curvature="0" /><path
           d="m -0.229,791.764 v -3.152 C 48.93,765.015 109.609,735.887 109.609,735.887 l 19.805,20.171 c 0,0 -57.852,18.793 -109.918,35.706 z"
           style="fill:none;stroke:#9e236b;stroke-width:0.80599999;stroke-linecap:butt;stroke-linejoin:miter;stroke-miterlimit:4;stroke-dasharray:none;stroke-opacity:1"
           id="path5233"
           inkscape:connector-curvature="0" /><path
           d="m 19.496,791.764 c 52.066,-16.913 109.918,-35.706 109.918,-35.706 l 77.438,18.372 c 0,0 -49.76,8.103 -106.451,17.334 z"
           style="fill:#9f256a;fill-opacity:1;fill-rule:nonzero;stroke:none"
           id="path5235"
           inkscape:connector-curvature="0" /><path
           d="m 19.496,791.764 c 52.066,-16.913 109.918,-35.706 109.918,-35.706 l 77.438,18.372 c 0,0 -49.76,8.103 -106.451,17.334 z"
           style="fill:none;stroke:#9f256a;stroke-width:0.80599999;stroke-linecap:butt;stroke-linejoin:miter;stroke-miterlimit:4;stroke-dasharray:none;stroke-opacity:1"
           id="path5237"
           inkscape:connector-curvature="0" /><path
           d="m 100.401,791.764 c 56.691,-9.231 106.451,-17.334 106.451,-17.334 0,0 124.285,13.735 156.854,17.334 z"
           style="fill:#a62971;fill-opacity:1;fill-rule:nonzero;stroke:none"
           id="path5239"
           inkscape:connector-curvature="0" /><path
           d="m 100.401,791.764 c 56.691,-9.231 106.451,-17.334 106.451,-17.334 0,0 124.285,13.735 156.854,17.334 z"
           style="fill:none;stroke:#a62971;stroke-width:0.80599999;stroke-linecap:butt;stroke-linejoin:miter;stroke-miterlimit:4;stroke-dasharray:none;stroke-opacity:1"
           id="path5241"
           inkscape:connector-curvature="0" /><path
           d="m 129.414,756.058 -19.805,-20.171 97.243,38.543 z"
           style="fill:#b2267a;fill-opacity:1;fill-rule:nonzero;stroke:none"
           id="path5243"
           inkscape:connector-curvature="0" /><path
           d="m 129.414,756.058 -19.805,-20.171 97.243,38.543 z"
           style="fill:none;stroke:#b2267a;stroke-width:0.80599999;stroke-linecap:butt;stroke-linejoin:miter;stroke-miterlimit:4;stroke-dasharray:none;stroke-opacity:1"
           id="path5245"
           inkscape:connector-curvature="0" /><path
           d="M 206.852,774.43 109.609,735.887 293.963,664.68 Z"
           style="fill:#c42d8b;fill-opacity:1;fill-rule:nonzero;stroke:none"
           id="path5247"
           inkscape:connector-curvature="0" /><path
           d="M 206.852,774.43 109.609,735.887 293.963,664.68 Z"
           style="fill:none;stroke:#c42d8b;stroke-width:0.80599999;stroke-linecap:butt;stroke-linejoin:miter;stroke-miterlimit:4;stroke-dasharray:none;stroke-opacity:1"
           id="path5249"
           inkscape:connector-curvature="0" /><path
           d="m 206.852,774.43 87.111,-109.75 25.045,26.048 z"
           style="fill:#cf3f9a;fill-opacity:1;fill-rule:nonzero;stroke:none"
           id="path5251"
           inkscape:connector-curvature="0" /><path
           d="m 206.852,774.43 87.111,-109.75 25.045,26.048 z"
           style="fill:none;stroke:#cf3f9a;stroke-width:0.80599999;stroke-linecap:butt;stroke-linejoin:miter;stroke-miterlimit:4;stroke-dasharray:none;stroke-opacity:1"
           id="path5253"
           inkscape:connector-curvature="0" /><path
           d="M 363.706,791.764 C 331.137,788.165 206.852,774.43 206.852,774.43 l 112.156,-83.702 c 0,0 46.938,91.21 51.994,101.036 z"
           style="fill:#c04a90;fill-opacity:1;fill-rule:nonzero;stroke:none"
           id="path5255"
           inkscape:connector-curvature="0" /><path
           d="M 363.706,791.764 C 331.137,788.165 206.852,774.43 206.852,774.43 l 112.156,-83.702 c 0,0 46.938,91.21 51.994,101.036 z"
           style="fill:none;stroke:#c04a90;stroke-width:0.80599999;stroke-linecap:butt;stroke-linejoin:miter;stroke-miterlimit:4;stroke-dasharray:none;stroke-opacity:1"
           id="path5257"
           inkscape:connector-curvature="0" /><path
           d="M 371.002,791.764 C 365.946,781.938 319.008,690.728 319.008,690.728 L 472.772,629.53 c 0,0 -92.918,149.551 -100.798,162.234 z"
           style="fill:#d95aa9;fill-opacity:1;fill-rule:nonzero;stroke:none"
           id="path5259"
           inkscape:connector-curvature="0" /><path
           d="M 371.002,791.764 C 365.946,781.938 319.008,690.728 319.008,690.728 L 472.772,629.53 c 0,0 -92.918,149.551 -100.798,162.234 z"
           style="fill:none;stroke:#d95aa9;stroke-width:0.80599999;stroke-linecap:butt;stroke-linejoin:miter;stroke-miterlimit:4;stroke-dasharray:none;stroke-opacity:1"
           id="path5261"
           inkscape:connector-curvature="0" /><path
           d="M 371.974,791.764 C 379.854,779.081 472.772,629.53 472.772,629.53 l 42.666,146.17 c 0,0 -107.465,12.627 -136.719,16.064 z"
           style="fill:#d169aa;fill-opacity:1;fill-rule:nonzero;stroke:none"
           id="path5263"
           inkscape:connector-curvature="0" /><path
           d="M 371.974,791.764 C 379.854,779.081 472.772,629.53 472.772,629.53 l 42.666,146.17 c 0,0 -107.465,12.627 -136.719,16.064 z"
           style="fill:none;stroke:#d169aa;stroke-width:0.80599999;stroke-linecap:butt;stroke-linejoin:miter;stroke-miterlimit:4;stroke-dasharray:none;stroke-opacity:1"
           id="path5265"
           inkscape:connector-curvature="0" /><path
           d="m 378.719,791.764 c 29.254,-3.437 136.719,-16.064 136.719,-16.064 0,0 23.694,6.483 58.71,16.064 z"
           style="fill:#b6819c;fill-opacity:1;fill-rule:nonzero;stroke:none"
           id="path5267"
           inkscape:connector-curvature="0" /><path
           d="m 378.719,791.764 c 29.254,-3.437 136.719,-16.064 136.719,-16.064 0,0 23.694,6.483 58.71,16.064 z"
           style="fill:none;stroke:#b6819c;stroke-width:0.80599999;stroke-linecap:butt;stroke-linejoin:miter;stroke-miterlimit:4;stroke-dasharray:none;stroke-opacity:1"
           id="path5269"
           inkscape:connector-curvature="0" /><path
           d="M 612.101,735.498 C 569.509,753.212 515.438,775.7 515.438,775.7 L 472.772,629.53 c 0,0 83.091,37.189 139.329,62.359 z"
           style="fill:#e076b6;fill-opacity:1;fill-rule:nonzero;stroke:none"
           id="path5271"
           inkscape:connector-curvature="0" /><path
           d="M 612.101,735.498 C 569.509,753.212 515.438,775.7 515.438,775.7 L 472.772,629.53 c 0,0 83.091,37.189 139.329,62.359 z"
           style="fill:none;stroke:#e076b6;stroke-width:0.80599999;stroke-linecap:butt;stroke-linejoin:miter;stroke-miterlimit:4;stroke-dasharray:none;stroke-opacity:1"
           id="path5273"
           inkscape:connector-curvature="0" /><path
           d="m 612.101,783.46 c -36.564,-2.936 -96.663,-7.76 -96.663,-7.76 0,0 54.071,-22.488 96.663,-40.202 z"
           style="fill:#ce81ae;fill-opacity:1;fill-rule:nonzero;stroke:none"
           id="path5275"
           inkscape:connector-curvature="0" /><path
           d="m 612.101,783.46 c -36.564,-2.936 -96.663,-7.76 -96.663,-7.76 0,0 54.071,-22.488 96.663,-40.202 z"
           style="fill:none;stroke:#ce81ae;stroke-width:0.80599999;stroke-linecap:butt;stroke-linejoin:miter;stroke-miterlimit:4;stroke-dasharray:none;stroke-opacity:1"
           id="path5277"
           inkscape:connector-curvature="0" /><path
           d="m 612.101,791.764 h -37.953 c -35.016,-9.581 -58.71,-16.064 -58.71,-16.064 0,0 60.099,4.824 96.663,7.76 z"
           style="fill:#b78c9f;fill-opacity:1;fill-rule:nonzero;stroke:none"
           id="path5279"
           inkscape:connector-curvature="0" /><path
           d="m 612.101,791.764 h -37.953 c -35.016,-9.581 -58.71,-16.064 -58.71,-16.064 0,0 60.099,4.824 96.663,7.76 z"
           style="fill:none;stroke:#b78c9f;stroke-width:0.80599999;stroke-linecap:butt;stroke-linejoin:miter;stroke-miterlimit:4;stroke-dasharray:none;stroke-opacity:1"
           id="path5281"
           inkscape:connector-curvature="0" /><path
           d="m -0.229,507.73 c 50.64,0.782 112.27,1.733 112.27,1.733 0,0 -61.131,55.977 -112.27,102.804 z"
           style="fill:#c15fa4;fill-opacity:1;fill-rule:nonzero;stroke:none"
           id="path5283"
           inkscape:connector-curvature="0" /><path
           d="m -0.229,507.73 c 50.64,0.782 112.27,1.733 112.27,1.733 0,0 -61.131,55.977 -112.27,102.804 z"
           style="fill:none;stroke:#c15fa4;stroke-width:0.80599999;stroke-linecap:butt;stroke-linejoin:miter;stroke-miterlimit:4;stroke-dasharray:none;stroke-opacity:1"
           id="path5285"
           inkscape:connector-curvature="0" /><path
           d="M -0.229,612.267 C 50.91,565.44 112.041,509.463 112.041,509.463 l -2.432,226.424 c 0,0 -59.578,-20.399 -109.838,-37.607 z"
           style="fill:#c73292;fill-opacity:1;fill-rule:nonzero;stroke:none"
           id="path5287"
           inkscape:connector-curvature="0" /><path
           d="M -0.229,612.267 C 50.91,565.44 112.041,509.463 112.041,509.463 l -2.432,226.424 c 0,0 -59.578,-20.399 -109.838,-37.607 z"
           style="fill:none;stroke:#c73292;stroke-width:0.80599999;stroke-linecap:butt;stroke-linejoin:miter;stroke-miterlimit:4;stroke-dasharray:none;stroke-opacity:1"
           id="path5289"
           inkscape:connector-curvature="0" /><path
           d="m 109.609,735.887 2.432,-226.424 96.515,32.109 z"
           style="fill:#da54aa;fill-opacity:1;fill-rule:nonzero;stroke:none"
           id="path5291"
           inkscape:connector-curvature="0" /><path
           d="m 109.609,735.887 2.432,-226.424 96.515,32.109 z"
           style="fill:none;stroke:#da54aa;stroke-width:0.80599999;stroke-linecap:butt;stroke-linejoin:miter;stroke-miterlimit:4;stroke-dasharray:none;stroke-opacity:1"
           id="path5293"
           inkscape:connector-curvature="0" /><path
           d="M 109.609,735.887 208.556,541.572 293.963,664.68 Z"
           style="fill:#dc389f;fill-opacity:1;fill-rule:nonzero;stroke:none"
           id="path5295"
           inkscape:connector-curvature="0" /><path
           d="M 109.609,735.887 208.556,541.572 293.963,664.68 Z"
           style="fill:none;stroke:#dc389f;stroke-width:0.80599999;stroke-linecap:butt;stroke-linejoin:miter;stroke-miterlimit:4;stroke-dasharray:none;stroke-opacity:1"
           id="path5297"
           inkscape:connector-curvature="0" /><path
           d="M 293.963,664.68 208.556,541.572 374.99,530.333 Z"
           style="fill:#e77ebe;fill-opacity:1;fill-rule:nonzero;stroke:none"
           id="path5299"
           inkscape:connector-curvature="0" /><path
           d="M 293.963,664.68 208.556,541.572 374.99,530.333 Z"
           style="fill:none;stroke:#e77ebe;stroke-width:0.80599999;stroke-linecap:butt;stroke-linejoin:miter;stroke-miterlimit:4;stroke-dasharray:none;stroke-opacity:1"
           id="path5301"
           inkscape:connector-curvature="0" /><path
           d="M 293.963,664.68 374.99,530.333 319.008,690.728 Z"
           style="fill:#e669b5;fill-opacity:1;fill-rule:nonzero;stroke:none"
           id="path5303"
           inkscape:connector-curvature="0" /><path
           d="M 293.963,664.68 374.99,530.333 319.008,690.728 Z"
           style="fill:none;stroke:#e669b5;stroke-width:0.80599999;stroke-linecap:butt;stroke-linejoin:miter;stroke-miterlimit:4;stroke-dasharray:none;stroke-opacity:1"
           id="path5305"
           inkscape:connector-curvature="0" /><path
           d="M 319.008,690.728 374.99,530.333 472.772,629.53 Z"
           style="fill:#ea7ebe;fill-opacity:1;fill-rule:nonzero;stroke:none"
           id="path5307"
           inkscape:connector-curvature="0" /><path
           d="M 319.008,690.728 374.99,530.333 472.772,629.53 Z"
           style="fill:none;stroke:#ea7ebe;stroke-width:0.80599999;stroke-linecap:butt;stroke-linejoin:miter;stroke-miterlimit:4;stroke-dasharray:none;stroke-opacity:1"
           id="path5309"
           inkscape:connector-curvature="0" /><path
           d="m 472.772,629.53 -97.782,-99.197 99.023,-0.357 z"
           style="fill:#f0a8d2;fill-opacity:1;fill-rule:nonzero;stroke:none"
           id="path5311"
           inkscape:connector-curvature="0" /><path
           d="m 472.772,629.53 -97.782,-99.197 99.023,-0.357 z"
           style="fill:none;stroke:#f0a8d2;stroke-width:0.80599999;stroke-linecap:butt;stroke-linejoin:miter;stroke-miterlimit:4;stroke-dasharray:none;stroke-opacity:1"
           id="path5313"
           inkscape:connector-curvature="0" /><path
           d="M 612.101,548.899 C 548.693,585.594 472.772,629.53 472.772,629.53 l 1.241,-99.554 c 0,0 75.128,-10.117 138.088,-18.595 z"
           style="fill:#f1bedd;fill-opacity:1;fill-rule:nonzero;stroke:none"
           id="path5315"
           inkscape:connector-curvature="0" /><path
           d="M 612.101,548.899 C 548.693,585.594 472.772,629.53 472.772,629.53 l 1.241,-99.554 c 0,0 75.128,-10.117 138.088,-18.595 z"
           style="fill:none;stroke:#f1bedd;stroke-width:0.80599999;stroke-linecap:butt;stroke-linejoin:miter;stroke-miterlimit:4;stroke-dasharray:none;stroke-opacity:1"
           id="path5317"
           inkscape:connector-curvature="0" /><path
           d="M 612.101,691.889 C 555.863,666.719 472.772,629.53 472.772,629.53 c 0,0 75.921,-43.936 139.329,-80.631 z"
           style="fill:#f4a3d0;fill-opacity:1;fill-rule:nonzero;stroke:none"
           id="path5319"
           inkscape:connector-curvature="0" /><path
           d="M 612.101,691.889 C 555.863,666.719 472.772,629.53 472.772,629.53 c 0,0 75.921,-43.936 139.329,-80.631 z"
           style="fill:none;stroke:#f4a3d0;stroke-width:0.80599999;stroke-linecap:butt;stroke-linejoin:miter;stroke-miterlimit:4;stroke-dasharray:none;stroke-opacity:1"
           id="path5321"
           inkscape:connector-curvature="0" /><path
           d="m -0.229,338.654 c 3.191,3.008 5.024,4.737 5.024,4.737 0,0 -1.879,4.366 -5.024,11.671 z"
           style="fill:#b787a4;fill-opacity:1;fill-rule:nonzero;stroke:none"
           id="path5323"
           inkscape:connector-curvature="0" /><path
           d="m -0.229,338.654 c 3.191,3.008 5.024,4.737 5.024,4.737 0,0 -1.879,4.366 -5.024,11.671 z"
           style="fill:none;stroke:#b787a4;stroke-width:0.80599999;stroke-linecap:butt;stroke-linejoin:miter;stroke-miterlimit:4;stroke-dasharray:none;stroke-opacity:1"
           id="path5325"
           inkscape:connector-curvature="0" /><path
           d="m -0.229,355.062 c 3.145,-7.305 5.024,-11.671 5.024,-11.671 l 56.113,10.228 c 0,0 -30.238,36.622 -61.137,74.045 z"
           style="fill:#c386b0;fill-opacity:1;fill-rule:nonzero;stroke:none"
           id="path5327"
           inkscape:connector-curvature="0" /><path
           d="m -0.229,355.062 c 3.145,-7.305 5.024,-11.671 5.024,-11.671 l 56.113,10.228 c 0,0 -30.238,36.622 -61.137,74.045 z"
           style="fill:none;stroke:#c386b0;stroke-width:0.80599999;stroke-linecap:butt;stroke-linejoin:miter;stroke-miterlimit:4;stroke-dasharray:none;stroke-opacity:1"
           id="path5329"
           inkscape:connector-curvature="0" /><path
           d="M -0.229,427.664 C 30.67,390.241 60.908,353.619 60.908,353.619 l 51.133,155.844 c 0,0 -61.63,-0.951 -112.27,-1.733 z"
           style="fill:#c882b6;fill-opacity:1;fill-rule:nonzero;stroke:none"
           id="path5331"
           inkscape:connector-curvature="0" /><path
           d="M -0.229,427.664 C 30.67,390.241 60.908,353.619 60.908,353.619 l 51.133,155.844 c 0,0 -61.63,-0.951 -112.27,-1.733 z"
           style="fill:none;stroke:#c882b6;stroke-width:0.80599999;stroke-linecap:butt;stroke-linejoin:miter;stroke-miterlimit:4;stroke-dasharray:none;stroke-opacity:1"
           id="path5333"
           inkscape:connector-curvature="0" /><path
           d="M 112.041,509.463 60.908,353.619 190.301,461.903 Z"
           style="fill:#d68bbd;fill-opacity:1;fill-rule:nonzero;stroke:none"
           id="path5335"
           inkscape:connector-curvature="0" /><path
           d="M 112.041,509.463 60.908,353.619 190.301,461.903 Z"
           style="fill:none;stroke:#d68bbd;stroke-width:0.80599999;stroke-linecap:butt;stroke-linejoin:miter;stroke-miterlimit:4;stroke-dasharray:none;stroke-opacity:1"
           id="path5337"
           inkscape:connector-curvature="0" /><path
           d="m 112.041,509.463 78.26,-47.56 18.255,79.669 z"
           style="fill:#df7ec1;fill-opacity:1;fill-rule:nonzero;stroke:none"
           id="path5339"
           inkscape:connector-curvature="0" /><path
           d="m 112.041,509.463 78.26,-47.56 18.255,79.669 z"
           style="fill:none;stroke:#df7ec1;stroke-width:0.80599999;stroke-linecap:butt;stroke-linejoin:miter;stroke-miterlimit:4;stroke-dasharray:none;stroke-opacity:1"
           id="path5341"
           inkscape:connector-curvature="0" /><path
           d="m 208.556,541.572 -18.255,-79.669 184.689,68.43 z"
           style="fill:#e694c9;fill-opacity:1;fill-rule:nonzero;stroke:none"
           id="path5343"
           inkscape:connector-curvature="0" /><path
           d="m 208.556,541.572 -18.255,-79.669 184.689,68.43 z"
           style="fill:none;stroke:#e694c9;stroke-width:0.80599999;stroke-linecap:butt;stroke-linejoin:miter;stroke-miterlimit:4;stroke-dasharray:none;stroke-opacity:1"
           id="path5345"
           inkscape:connector-curvature="0" /><path
           d="m 374.99,530.333 -184.689,-68.43 203.87,-85.292 z"
           style="fill:#e8b4d3;fill-opacity:1;fill-rule:nonzero;stroke:none"
           id="path5347"
           inkscape:connector-curvature="0" /><path
           d="m 374.99,530.333 -184.689,-68.43 203.87,-85.292 z"
           style="fill:none;stroke:#e8b4d3;stroke-width:0.80599999;stroke-linecap:butt;stroke-linejoin:miter;stroke-miterlimit:4;stroke-dasharray:none;stroke-opacity:1"
           id="path5349"
           inkscape:connector-curvature="0" /><path
           d="m 374.99,530.333 19.181,-153.722 79.842,153.365 z"
           style="fill:#eec2dd;fill-opacity:1;fill-rule:nonzero;stroke:none"
           id="path5351"
           inkscape:connector-curvature="0" /><path
           d="m 374.99,530.333 19.181,-153.722 79.842,153.365 z"
           style="fill:none;stroke:#eec2dd;stroke-width:0.80599999;stroke-linecap:butt;stroke-linejoin:miter;stroke-miterlimit:4;stroke-dasharray:none;stroke-opacity:1"
           id="path5353"
           inkscape:connector-curvature="0" /><path
           d="M 474.013,529.976 394.171,376.611 530.529,417.614 Z"
           style="fill:#f2d5e6;fill-opacity:1;fill-rule:nonzero;stroke:none"
           id="path5355"
           inkscape:connector-curvature="0" /><path
           d="M 474.013,529.976 394.171,376.611 530.529,417.614 Z"
           style="fill:none;stroke:#f2d5e6;stroke-width:0.80599999;stroke-linecap:butt;stroke-linejoin:miter;stroke-miterlimit:4;stroke-dasharray:none;stroke-opacity:1"
           id="path5357"
           inkscape:connector-curvature="0" /><path
           d="m 612.101,511.381 c -62.96,8.478 -138.088,18.595 -138.088,18.595 l 56.516,-112.362 c 0,0 40.548,20.117 81.572,40.47 z"
           style="fill:#f4dbeb;fill-opacity:1;fill-rule:nonzero;stroke:none"
           id="path5359"
           inkscape:connector-curvature="0" /><path
           d="m 612.101,511.381 c -62.96,8.478 -138.088,18.595 -138.088,18.595 l 56.516,-112.362 c 0,0 40.548,20.117 81.572,40.47 z"
           style="fill:none;stroke:#f4dbeb;stroke-width:0.80599999;stroke-linecap:butt;stroke-linejoin:miter;stroke-miterlimit:4;stroke-dasharray:none;stroke-opacity:1"
           id="path5361"
           inkscape:connector-curvature="0" /><path
           d="m 612.101,458.084 c -41.024,-20.353 -81.572,-40.47 -81.572,-40.47 0,0 43.054,-18.217 81.572,-34.514 z"
           style="fill:#f6f0f5;fill-opacity:1;fill-rule:nonzero;stroke:none"
           id="path5363"
           inkscape:connector-curvature="0" /><path
           d="m 612.101,458.084 c -41.024,-20.353 -81.572,-40.47 -81.572,-40.47 0,0 43.054,-18.217 81.572,-34.514 z"
           style="fill:none;stroke:#f6f0f5;stroke-width:0.80599999;stroke-linecap:butt;stroke-linejoin:miter;stroke-miterlimit:4;stroke-dasharray:none;stroke-opacity:1"
           id="path5365"
           inkscape:connector-curvature="0" /><path
           d="M -0.229,179.365 C 10.496,173.048 17.56,168.887 17.56,168.887 L 4.795,343.391 c 0,0 -1.833,-1.729 -5.024,-4.737 z"
           style="fill:#9b836a;fill-opacity:1;fill-rule:nonzero;stroke:none"
           id="path5367"
           inkscape:connector-curvature="0" /><path
           d="M -0.229,179.365 C 10.496,173.048 17.56,168.887 17.56,168.887 L 4.795,343.391 c 0,0 -1.833,-1.729 -5.024,-4.737 z"
           style="fill:none;stroke:#9b836a;stroke-width:0.80599999;stroke-linecap:butt;stroke-linejoin:miter;stroke-miterlimit:4;stroke-dasharray:none;stroke-opacity:1"
           id="path5369"
           inkscape:connector-curvature="0" /><path
           d="M 4.795,343.391 17.56,168.887 84.244,302.432 Z"
           style="fill:#af857d;fill-opacity:1;fill-rule:nonzero;stroke:none"
           id="path5371"
           inkscape:connector-curvature="0" /><path
           d="M 4.795,343.391 17.56,168.887 84.244,302.432 Z"
           style="fill:none;stroke:#af857d;stroke-width:0.80599999;stroke-linecap:butt;stroke-linejoin:miter;stroke-miterlimit:4;stroke-dasharray:none;stroke-opacity:1"
           id="path5373"
           inkscape:connector-curvature="0" /><path
           d="M 4.795,343.391 84.244,302.432 60.908,353.619 Z"
           style="fill:#c388a0;fill-opacity:1;fill-rule:nonzero;stroke:none"
           id="path5375"
           inkscape:connector-curvature="0" /><path
           d="M 4.795,343.391 84.244,302.432 60.908,353.619 Z"
           style="fill:none;stroke:#c388a0;stroke-width:0.80599999;stroke-linecap:butt;stroke-linejoin:miter;stroke-miterlimit:4;stroke-dasharray:none;stroke-opacity:1"
           id="path5377"
           inkscape:connector-curvature="0" /><path
           d="M 60.908,353.619 84.244,302.432 190.301,461.903 Z"
           style="fill:#d58ab9;fill-opacity:1;fill-rule:nonzero;stroke:none"
           id="path5379"
           inkscape:connector-curvature="0" /><path
           d="M 60.908,353.619 84.244,302.432 190.301,461.903 Z"
           style="fill:none;stroke:#d58ab9;stroke-width:0.80599999;stroke-linecap:butt;stroke-linejoin:miter;stroke-miterlimit:4;stroke-dasharray:none;stroke-opacity:1"
           id="path5381"
           inkscape:connector-curvature="0" /><path
           d="M 190.301,461.903 84.244,302.432 188.315,226.924 Z"
           style="fill:#d48fab;fill-opacity:1;fill-rule:nonzero;stroke:none"
           id="path5383"
           inkscape:connector-curvature="0" /><path
           d="M 190.301,461.903 84.244,302.432 188.315,226.924 Z"
           style="fill:none;stroke:#d48fab;stroke-width:0.80599999;stroke-linecap:butt;stroke-linejoin:miter;stroke-miterlimit:4;stroke-dasharray:none;stroke-opacity:1"
           id="path5385"
           inkscape:connector-curvature="0" /><path
           d="m 190.301,461.903 -1.986,-234.979 161.263,91.287 z"
           style="fill:#dda1b9;fill-opacity:1;fill-rule:nonzero;stroke:none"
           id="path5387"
           inkscape:connector-curvature="0" /><path
           d="m 190.301,461.903 -1.986,-234.979 161.263,91.287 z"
           style="fill:none;stroke:#dda1b9;stroke-width:0.80599999;stroke-linecap:butt;stroke-linejoin:miter;stroke-miterlimit:4;stroke-dasharray:none;stroke-opacity:1"
           id="path5389"
           inkscape:connector-curvature="0" /><path
           d="m 190.301,461.903 159.277,-143.692 44.593,58.4 z"
           style="fill:#e9b3d1;fill-opacity:1;fill-rule:nonzero;stroke:none"
           id="path5391"
           inkscape:connector-curvature="0" /><path
           d="m 190.301,461.903 159.277,-143.692 44.593,58.4 z"
           style="fill:none;stroke:#e9b3d1;stroke-width:0.80599999;stroke-linecap:butt;stroke-linejoin:miter;stroke-miterlimit:4;stroke-dasharray:none;stroke-opacity:1"
           id="path5393"
           inkscape:connector-curvature="0" /><path
           d="m 394.171,376.611 -44.593,-58.4 181.719,-18.27 z"
           style="fill:#e9cecf;fill-opacity:1;fill-rule:nonzero;stroke:none"
           id="path5395"
           inkscape:connector-curvature="0" /><path
           d="m 394.171,376.611 -44.593,-58.4 181.719,-18.27 z"
           style="fill:none;stroke:#e9cecf;stroke-width:0.80599999;stroke-linecap:butt;stroke-linejoin:miter;stroke-miterlimit:4;stroke-dasharray:none;stroke-opacity:1"
           id="path5397"
           inkscape:connector-curvature="0" /><path
           d="m 394.171,376.611 137.126,-76.67 -0.768,117.673 z"
           style="fill:#f0dae7;fill-opacity:1;fill-rule:nonzero;stroke:none"
           id="path5399"
           inkscape:connector-curvature="0" /><path
           d="m 394.171,376.611 137.126,-76.67 -0.768,117.673 z"
           style="fill:none;stroke:#f0dae7;stroke-width:0.80599999;stroke-linecap:butt;stroke-linejoin:miter;stroke-miterlimit:4;stroke-dasharray:none;stroke-opacity:1"
           id="path5401"
           inkscape:connector-curvature="0" /><path
           d="m 612.101,383.1 c -38.518,16.297 -81.572,34.514 -81.572,34.514 l 0.768,-117.673 c 0,0 42.578,17.627 80.804,33.452 z"
           style="fill:#f2e6eb;fill-opacity:1;fill-rule:nonzero;stroke:none"
           id="path5403"
           inkscape:connector-curvature="0" /><path
           d="m 612.101,383.1 c -38.518,16.297 -81.572,34.514 -81.572,34.514 l 0.768,-117.673 c 0,0 42.578,17.627 80.804,33.452 z"
           style="fill:none;stroke:#f2e6eb;stroke-width:0.80599999;stroke-linecap:butt;stroke-linejoin:miter;stroke-miterlimit:4;stroke-dasharray:none;stroke-opacity:1"
           id="path5405"
           inkscape:connector-curvature="0" /><path
           d="m 612.101,333.393 c -38.226,-15.825 -80.804,-33.452 -80.804,-33.452 0,0 39.757,-0.68 80.804,-1.383 z"
           style="fill:#efecd8;fill-opacity:1;fill-rule:nonzero;stroke:none"
           id="path5407"
           inkscape:connector-curvature="0" /><path
           d="m 612.101,333.393 c -38.226,-15.825 -80.804,-33.452 -80.804,-33.452 0,0 39.757,-0.68 80.804,-1.383 z"
           style="fill:none;stroke:#efecd8;stroke-width:0.80599999;stroke-linecap:butt;stroke-linejoin:miter;stroke-miterlimit:4;stroke-dasharray:none;stroke-opacity:1"
           id="path5409"
           inkscape:connector-curvature="0" /><path
           d="m -0.229,68.806 c 8.924,50.209 17.789,100.081 17.789,100.081 0,0 -7.064,4.161 -17.789,10.478 z"
           style="fill:#6e6145;fill-opacity:1;fill-rule:nonzero;stroke:none"
           id="path5411"
           inkscape:connector-curvature="0" /><path
           d="m -0.229,68.806 c 8.924,50.209 17.789,100.081 17.789,100.081 0,0 -7.064,4.161 -17.789,10.478 z"
           style="fill:none;stroke:#6e6145;stroke-width:0.80599999;stroke-linecap:butt;stroke-linejoin:miter;stroke-miterlimit:4;stroke-dasharray:none;stroke-opacity:1"
           id="path5413"
           inkscape:connector-curvature="0" /><path
           d="M 84.244,302.432 17.56,168.887 188.315,226.924 Z"
           style="fill:#a88471;fill-opacity:1;fill-rule:nonzero;stroke:none"
           id="path5415"
           inkscape:connector-curvature="0" /><path
           d="M 84.244,302.432 17.56,168.887 188.315,226.924 Z"
           style="fill:none;stroke:#a88471;stroke-width:0.80599999;stroke-linecap:butt;stroke-linejoin:miter;stroke-miterlimit:4;stroke-dasharray:none;stroke-opacity:1"
           id="path5417"
           inkscape:connector-curvature="0" /><path
           d="M 188.315,226.924 17.56,168.887 42.491,116.412 Z"
           style="fill:#8f725c;fill-opacity:1;fill-rule:nonzero;stroke:none"
           id="path5419"
           inkscape:connector-curvature="0" /><path
           d="M 188.315,226.924 17.56,168.887 42.491,116.412 Z"
           style="fill:none;stroke:#8f725c;stroke-width:0.80599999;stroke-linecap:butt;stroke-linejoin:miter;stroke-miterlimit:4;stroke-dasharray:none;stroke-opacity:1"
           id="path5421"
           inkscape:connector-curvature="0" /><path
           d="M 188.315,226.924 42.491,116.412 126.833,31.201 Z"
           style="fill:#87665b;fill-opacity:1;fill-rule:nonzero;stroke:none"
           id="path5423"
           inkscape:connector-curvature="0" /><path
           d="M 188.315,226.924 42.491,116.412 126.833,31.201 Z"
           style="fill:none;stroke:#87665b;stroke-width:0.80599999;stroke-linecap:butt;stroke-linejoin:miter;stroke-miterlimit:4;stroke-dasharray:none;stroke-opacity:1"
           id="path5425"
           inkscape:connector-curvature="0" /><path
           d="M 188.315,226.924 126.833,31.201 250.064,147.918 Z"
           style="fill:#956f64;fill-opacity:1;fill-rule:nonzero;stroke:none"
           id="path5427"
           inkscape:connector-curvature="0" /><path
           d="M 188.315,226.924 126.833,31.201 250.064,147.918 Z"
           style="fill:none;stroke:#956f64;stroke-width:0.80599999;stroke-linecap:butt;stroke-linejoin:miter;stroke-miterlimit:4;stroke-dasharray:none;stroke-opacity:1"
           id="path5429"
           inkscape:connector-curvature="0" /><path
           d="m 188.315,226.924 61.749,-79.006 99.514,170.293 z"
           style="fill:#bb9e85;fill-opacity:1;fill-rule:nonzero;stroke:none"
           id="path5431"
           inkscape:connector-curvature="0" /><path
           d="m 188.315,226.924 61.749,-79.006 99.514,170.293 z"
           style="fill:none;stroke:#bb9e85;stroke-width:0.80599999;stroke-linecap:butt;stroke-linejoin:miter;stroke-miterlimit:4;stroke-dasharray:none;stroke-opacity:1"
           id="path5433"
           inkscape:connector-curvature="0" /><path
           d="m 349.578,318.211 -99.514,-170.293 145.69,14.061 z"
           style="fill:#b8ad87;fill-opacity:1;fill-rule:nonzero;stroke:none"
           id="path5435"
           inkscape:connector-curvature="0" /><path
           d="m 349.578,318.211 -99.514,-170.293 145.69,14.061 z"
           style="fill:none;stroke:#b8ad87;stroke-width:0.80599999;stroke-linecap:butt;stroke-linejoin:miter;stroke-miterlimit:4;stroke-dasharray:none;stroke-opacity:1"
           id="path5437"
           inkscape:connector-curvature="0" /><path
           d="M 349.578,318.211 395.754,161.979 531.297,299.941 Z"
           style="fill:#d4c8a9;fill-opacity:1;fill-rule:nonzero;stroke:none"
           id="path5439"
           inkscape:connector-curvature="0" /><path
           d="M 349.578,318.211 395.754,161.979 531.297,299.941 Z"
           style="fill:none;stroke:#d4c8a9;stroke-width:0.80599999;stroke-linecap:butt;stroke-linejoin:miter;stroke-miterlimit:4;stroke-dasharray:none;stroke-opacity:1"
           id="path5441"
           inkscape:connector-curvature="0" /><path
           d="M 531.297,299.941 395.754,161.979 566.877,89.336 Z"
           style="fill:#b6c597;fill-opacity:1;fill-rule:nonzero;stroke:none"
           id="path5443"
           inkscape:connector-curvature="0" /><path
           d="M 531.297,299.941 395.754,161.979 566.877,89.336 Z"
           style="fill:none;stroke:#b6c597;stroke-width:0.80599999;stroke-linecap:butt;stroke-linejoin:miter;stroke-miterlimit:4;stroke-dasharray:none;stroke-opacity:1"
           id="path5445"
           inkscape:connector-curvature="0" /><path
           d="m 612.101,228.611 c -36.271,32.019 -80.804,71.33 -80.804,71.33 l 35.58,-210.605 c 0,0 22.553,24.423 45.224,48.975 z"
           style="fill:#bed39e;fill-opacity:1;fill-rule:nonzero;stroke:none"
           id="path5447"
           inkscape:connector-curvature="0" /><path
           d="m 612.101,228.611 c -36.271,32.019 -80.804,71.33 -80.804,71.33 l 35.58,-210.605 c 0,0 22.553,24.423 45.224,48.975 z"
           style="fill:none;stroke:#bed39e;stroke-width:0.80599999;stroke-linecap:butt;stroke-linejoin:miter;stroke-miterlimit:4;stroke-dasharray:none;stroke-opacity:1"
           id="path5449"
           inkscape:connector-curvature="0" /><path
           d="m 612.101,298.558 c -41.047,0.703 -80.804,1.383 -80.804,1.383 0,0 44.533,-39.311 80.804,-71.33 z"
           style="fill:#dce4b9;fill-opacity:1;fill-rule:nonzero;stroke:none"
           id="path5451"
           inkscape:connector-curvature="0" /><path
           d="m 612.101,298.558 c -41.047,0.703 -80.804,1.383 -80.804,1.383 0,0 44.533,-39.311 80.804,-71.33 z"
           style="fill:none;stroke:#dce4b9;stroke-width:0.80599999;stroke-linecap:butt;stroke-linejoin:miter;stroke-miterlimit:4;stroke-dasharray:none;stroke-opacity:1"
           id="path5453"
           inkscape:connector-curvature="0" /><path
           d="m -0.229,11.33 c 17.939,44.127 42.72,105.082 42.72,105.082 L 17.56,168.887 c 0,0 -8.865,-49.872 -17.789,-100.081 z"
           style="fill:#6a514b;fill-opacity:1;fill-rule:nonzero;stroke:none"
           id="path5455"
           inkscape:connector-curvature="0" /><path
           d="m -0.229,11.33 c 17.939,44.127 42.72,105.082 42.72,105.082 L 17.56,168.887 c 0,0 -8.865,-49.872 -17.789,-100.081 z"
           style="fill:none;stroke:#6a514b;stroke-width:0.80599999;stroke-linecap:butt;stroke-linejoin:miter;stroke-miterlimit:4;stroke-dasharray:none;stroke-opacity:1"
           id="path5457"
           inkscape:connector-curvature="0" /><path
           d="m 57.079,0.209 c 35.328,15.696 69.754,30.992 69.754,30.992 l -84.342,85.211 c 0,0 -24.781,-60.955 -42.72,-105.082 V 0.209 Z"
           style="fill:#64424f;fill-opacity:1;fill-rule:nonzero;stroke:none"
           id="path5459"
           inkscape:connector-curvature="0" /><path
           d="m 57.079,0.209 c 35.328,15.696 69.754,30.992 69.754,30.992 l -84.342,85.211 c 0,0 -24.781,-60.955 -42.72,-105.082 V 0.209 Z"
           style="fill:none;stroke:#64424f;stroke-width:0.80599999;stroke-linecap:butt;stroke-linejoin:miter;stroke-miterlimit:4;stroke-dasharray:none;stroke-opacity:1"
           id="path5461"
           inkscape:connector-curvature="0" /><path
           d="M 250.064,147.918 126.833,31.201 l 99.692,10.59 z"
           style="fill:#855f65;fill-opacity:1;fill-rule:nonzero;stroke:none"
           id="path5463"
           inkscape:connector-curvature="0" /><path
           d="M 250.064,147.918 126.833,31.201 l 99.692,10.59 z"
           style="fill:none;stroke:#855f65;stroke-width:0.80599999;stroke-linecap:butt;stroke-linejoin:miter;stroke-miterlimit:4;stroke-dasharray:none;stroke-opacity:1"
           id="path5465"
           inkscape:connector-curvature="0" /><path
           d="M 250.064,147.918 226.525,41.791 395.754,161.979 Z"
           style="fill:#968673;fill-opacity:1;fill-rule:nonzero;stroke:none"
           id="path5467"
           inkscape:connector-curvature="0" /><path
           d="M 250.064,147.918 226.525,41.791 395.754,161.979 Z"
           style="fill:none;stroke:#968673;stroke-width:0.80599999;stroke-linecap:butt;stroke-linejoin:miter;stroke-miterlimit:4;stroke-dasharray:none;stroke-opacity:1"
           id="path5469"
           inkscape:connector-curvature="0" /><path
           d="m 399.927,0.209 c -1.457,56.472 -4.173,161.77 -4.173,161.77 L 226.525,41.791 c 0,0 48.869,-21.423 94.854,-41.582 z"
           style="fill:#88807b;fill-opacity:1;fill-rule:nonzero;stroke:none"
           id="path5471"
           inkscape:connector-curvature="0" /><path
           d="m 399.927,0.209 c -1.457,56.472 -4.173,161.77 -4.173,161.77 L 226.525,41.791 c 0,0 48.869,-21.423 94.854,-41.582 z"
           style="fill:none;stroke:#88807b;stroke-width:0.80599999;stroke-linecap:butt;stroke-linejoin:miter;stroke-miterlimit:4;stroke-dasharray:none;stroke-opacity:1"
           id="path5473"
           inkscape:connector-curvature="0" /><path
           d="m 442.216,0.209 c 4.764,4.01 7.961,6.699 7.961,6.699 l -54.423,155.071 c 0,0 2.716,-105.298 4.173,-161.77 z"
           style="fill:#898b85;fill-opacity:1;fill-rule:nonzero;stroke:none"
           id="path5475"
           inkscape:connector-curvature="0" /><path
           d="m 442.216,0.209 c 4.764,4.01 7.961,6.699 7.961,6.699 l -54.423,155.071 c 0,0 2.716,-105.298 4.173,-161.77 z"
           style="fill:none;stroke:#898b85;stroke-width:0.80599999;stroke-linecap:butt;stroke-linejoin:miter;stroke-miterlimit:4;stroke-dasharray:none;stroke-opacity:1"
           id="path5477"
           inkscape:connector-curvature="0" /><path
           d="M 395.754,161.979 450.177,6.908 566.877,89.336 Z"
           style="fill:#97a38d;fill-opacity:1;fill-rule:nonzero;stroke:none"
           id="path5479"
           inkscape:connector-curvature="0" /><path
           d="M 395.754,161.979 450.177,6.908 566.877,89.336 Z"
           style="fill:none;stroke:#97a38d;stroke-width:0.80599999;stroke-linecap:butt;stroke-linejoin:miter;stroke-miterlimit:4;stroke-dasharray:none;stroke-opacity:1"
           id="path5481"
           inkscape:connector-curvature="0" /><path
           d="M 612.101,29 C 591.718,56.193 566.877,89.336 566.877,89.336 L 450.177,6.908 c 0,0 49.677,-3.396 97.974,-6.699 h 63.95 z"
           style="fill:#8a9c94;fill-opacity:1;fill-rule:nonzero;stroke:none"
           id="path5483"
           inkscape:connector-curvature="0" /><path
           d="M 612.101,29 C 591.718,56.193 566.877,89.336 566.877,89.336 L 450.177,6.908 c 0,0 49.677,-3.396 97.974,-6.699 h 63.95 z"
           style="fill:none;stroke:#8a9c94;stroke-width:0.80599999;stroke-linecap:butt;stroke-linejoin:miter;stroke-miterlimit:4;stroke-dasharray:none;stroke-opacity:1"
           id="path5485"
           inkscape:connector-curvature="0" /><path
           d="M 612.101,138.311 C 589.43,113.759 566.877,89.336 566.877,89.336 c 0,0 24.841,-33.143 45.224,-60.336 z"
           style="fill:#9cb797;fill-opacity:1;fill-rule:nonzero;stroke:none"
           id="path5487"
           inkscape:connector-curvature="0" /><path
           d="M 612.101,138.311 C 589.43,113.759 566.877,89.336 566.877,89.336 c 0,0 24.841,-33.143 45.224,-60.336 z"
           style="fill:none;stroke:#9cb797;stroke-width:0.80599999;stroke-linecap:butt;stroke-linejoin:miter;stroke-miterlimit:4;stroke-dasharray:none;stroke-opacity:1"
           id="path5489"
           inkscape:connector-curvature="0" /><path
           d="m 116.298,0.209 c 6.327,18.614 10.535,30.992 10.535,30.992 0,0 -34.426,-15.296 -69.754,-30.992 z"
           style="fill:#5c254f;fill-opacity:1;fill-rule:nonzero;stroke:none"
           id="path5491"
           inkscape:connector-curvature="0" /><path
           d="m 116.298,0.209 c 6.327,18.614 10.535,30.992 10.535,30.992 0,0 -34.426,-15.296 -69.754,-30.992 z"
           style="fill:none;stroke:#5c254f;stroke-width:0.80599999;stroke-linecap:butt;stroke-linejoin:miter;stroke-miterlimit:4;stroke-dasharray:none;stroke-opacity:1"
           id="path5493"
           inkscape:connector-curvature="0" /><path
           d="m 146.719,0.209 c -11.588,18.059 -19.886,30.992 -19.886,30.992 0,0 -4.208,-12.378 -10.535,-30.992 z"
           style="fill:#69235c;fill-opacity:1;fill-rule:nonzero;stroke:none"
           id="path5495"
           inkscape:connector-curvature="0" /><path
           d="m 146.719,0.209 c -11.588,18.059 -19.886,30.992 -19.886,30.992 0,0 -4.208,-12.378 -10.535,-30.992 z"
           style="fill:none;stroke:#69235c;stroke-width:0.80599999;stroke-linecap:butt;stroke-linejoin:miter;stroke-miterlimit:4;stroke-dasharray:none;stroke-opacity:1"
           id="path5497"
           inkscape:connector-curvature="0" /><path
           d="m 224.181,0.209 c 1.331,23.608 2.344,41.582 2.344,41.582 l -99.692,-10.59 c 0,0 8.298,-12.933 19.886,-30.992 z"
           style="fill:#6f4063;fill-opacity:1;fill-rule:nonzero;stroke:none"
           id="path5499"
           inkscape:connector-curvature="0" /><path
           d="m 224.181,0.209 c 1.331,23.608 2.344,41.582 2.344,41.582 l -99.692,-10.59 c 0,0 8.298,-12.933 19.886,-30.992 z"
           style="fill:none;stroke:#6f4063;stroke-width:0.80599999;stroke-linecap:butt;stroke-linejoin:miter;stroke-miterlimit:4;stroke-dasharray:none;stroke-opacity:1"
           id="path5501"
           inkscape:connector-curvature="0" /><path
           d="m 321.379,0.209 c -45.985,20.159 -94.854,41.582 -94.854,41.582 0,0 -1.013,-17.974 -2.344,-41.582 z"
           style="fill:#755371;fill-opacity:1;fill-rule:nonzero;stroke:none"
           id="path5503"
           inkscape:connector-curvature="0" /><path
           d="m 321.379,0.209 c -45.985,20.159 -94.854,41.582 -94.854,41.582 0,0 -1.013,-17.974 -2.344,-41.582 z"
           style="fill:none;stroke:#755371;stroke-width:0.80599999;stroke-linecap:butt;stroke-linejoin:miter;stroke-miterlimit:4;stroke-dasharray:none;stroke-opacity:1"
           id="path5505"
           inkscape:connector-curvature="0" /><path
           d="m 449.922,0.209 c 0.16,4.224 0.255,6.699 0.255,6.699 0,0 -3.197,-2.689 -7.961,-6.699 z"
           style="fill:#7c7087;fill-opacity:1;fill-rule:nonzero;stroke:none"
           id="path5507"
           inkscape:connector-curvature="0" /><path
           d="m 449.922,0.209 c 0.16,4.224 0.255,6.699 0.255,6.699 0,0 -3.197,-2.689 -7.961,-6.699 z"
           style="fill:none;stroke:#7c7087;stroke-width:0.80599999;stroke-linecap:butt;stroke-linejoin:miter;stroke-miterlimit:4;stroke-dasharray:none;stroke-opacity:1"
           id="path5509"
           inkscape:connector-curvature="0" /><path
           d="m 548.151,0.209 c -48.297,3.303 -97.974,6.699 -97.974,6.699 0,0 -0.095,-2.475 -0.255,-6.699 z"
           style="fill:#7f8090;fill-opacity:1;fill-rule:nonzero;stroke:none"
           id="path5511"
           inkscape:connector-curvature="0" /><path
           d="m 548.151,0.209 c -48.297,3.303 -97.974,6.699 -97.974,6.699 0,0 -0.095,-2.475 -0.255,-6.699 z"
           style="fill:none;stroke:#7f8090;stroke-width:0.80599999;stroke-linecap:butt;stroke-linejoin:miter;stroke-miterlimit:4;stroke-dasharray:none;stroke-opacity:1"
           id="path5513"
           inkscape:connector-curvature="0" /></g></g></g></svg>