<?xml version="1.0" encoding="iso-8859-1"?>
<!-- Generator: Adobe Illustrator 19.0.0, SVG Export Plug-In . SVG Version: 6.00 Build 0)  -->
<svg version="1.1" id="Layer_1" xmlns="http://www.w3.org/2000/svg" xmlns:xlink="http://www.w3.org/1999/xlink" x="0px" y="0px"
	 viewBox="0 0 496 496" style="enable-background:new 0 0 496 496;" xml:space="preserve">
<g>
	<g>
		<g>
			<path d="M152,96h-16v16h16c8.824,0,16,7.176,16,16h16C184,110.352,169.648,96,152,96z"/>
			<path d="M248,112h16V96h-16c-17.648,0-32,14.352-32,32h16C232,119.176,239.176,112,248,112z"/>
			<path d="M408,192c-39.704,0-72,32.296-72,72v25.208c0,25.264-14.92,48.216-38.008,58.48l-18.72,8.32
				c-1.968-18.52-7.984-36.776-13.904-54.544c-3.448-10.344-7.016-21.04-9.608-31.408c-5.48-21.912-14.056-62.744-15.64-70.344
				c49.576-23.152,55.184-87.856,55.808-101.272c17.824-28.2,44.872-75.712,36.12-91.68C329.672,2.472,325.288,0,320,0
				c-53.128,0-80.6,25.88-90.504,37.92C223.144,35.288,212.688,32,200,32s-23.144,3.288-29.496,5.92C160.6,25.88,133.128,0,80,0
				c-5.288,0-9.672,2.472-12.04,6.768c-8.76,15.968,18.296,63.472,36.12,91.68c0.616,13.416,6.232,78.12,55.808,101.272
				c-1.584,7.6-10.168,48.424-15.64,70.344c-2.592,10.368-6.168,21.064-9.608,31.408c-7.152,21.456-14.528,43.64-14.616,66.136
				c-6.96,0.232-16.48,1.944-24.688,8.672C85.16,384.608,80,397.976,80,416c0,15.144,5.584,29.984,10.424,40H84
				c-11.032,0-20,8.968-20,20c0,11.032,8.968,20,20,20h232c11.032,0,20-8.968,20-20c0-11.032-8.968-20-20-20h-6.424
				c4.84-10.016,10.424-24.856,10.424-40c0-1.392-0.088-2.704-0.152-4.04C360.056,380.288,384,331.288,384,280v-16
				c0-13.232,10.768-24,24-24s24-10.768,24-24S421.232,192,408,192z M84,480.008C81.8,480,80,478.2,80,476s1.8-4,4-4h34.944
				l-8.288-12.44C110.504,459.344,96,437.328,96,416c0-12.936,3.16-22.12,9.384-27.28c4.664-3.864,10.392-4.944,14.712-5.144
				c0.448,39.992,2.952,76.456,12.176,96.432H84z M120,95.992l-0.008-2.328l-1.24-1.96C98.168,59.352,82.168,26.24,81.92,16.016
				c56.848,0.752,78.344,34.672,79.216,36.104l4.128,6.872l6.864-4.144C172.248,54.784,183.936,48,200,48
				c16.096,0,27.784,6.8,27.864,6.848l6.864,4.144l4.128-6.872c0.208-0.36,21.84-35.312,79.216-36.104
				c-0.248,10.232-16.248,43.344-36.832,75.688L280,93.672l0,2.32c-0.008,3.92-1.136,96.008-80,96.008S120.008,99.912,120,95.992z
				 M248,480c-6.44,0-15.992-40.312-16-96h-16c0,29.44,2.104,72.824,13.032,96h-58.056C181.896,456.824,184,413.44,184,384h-16
				c-0.008,55.688-9.56,96-16,96c-1.64,0-16-3.144-16-112c0-20.032,6.712-40.168,13.816-61.472
				c3.544-10.632,7.208-21.624,9.944-32.592c5.16-20.64,12.992-57.632,15.36-68.888C182.608,206.92,190.848,208,200,208
				s17.392-1.08,24.88-2.952c2.368,11.248,10.2,48.248,15.36,68.888c2.736,10.968,6.4,21.96,9.944,32.592
				C257.288,327.832,264,347.968,264,368C264,476.856,249.64,480,248,480z M316,472c2.2,0,4,1.8,4,4s-1.8,4-4,4h-48.272
				c9.224-19.976,11.728-56.432,12.176-96.424c4.328,0.208,10.056,1.288,14.712,5.144C300.84,393.88,304,403.064,304,416
				c0,21.208-14.512,43.352-14.664,43.568L281.096,472H316z M408,224c-22.056,0-40,17.944-40,40v16
				c0,43.512-19.048,85.208-51.408,113.864c-2.552-7.24-6.504-13.152-11.92-17.592c-4.832-3.96-10.128-6.104-15.104-7.328
				l14.928-6.64C333.352,349.488,352,320.792,352,289.208V264c0-30.872,25.128-56,56-56c4.416,0,8,3.584,8,8S412.416,224,408,224z"
				/>
		</g>
	</g>
</g>
<g>
</g>
<g>
</g>
<g>
</g>
<g>
</g>
<g>
</g>
<g>
</g>
<g>
</g>
<g>
</g>
<g>
</g>
<g>
</g>
<g>
</g>
<g>
</g>
<g>
</g>
<g>
</g>
<g>
</g>
</svg>
