<svg version="1.1" viewBox="0 0 512 512" xmlns="http://www.w3.org/2000/svg">
  <path d="m311.68 119.3c-7.076 0-12.817 5.741-12.817 12.817 0 7.087 5.741 12.829 12.817 12.829 7.087 0 12.829-5.741 12.829-12.829-1e-3 -7.076-5.742-12.817-12.829-12.817z"/>
  <path d="m301.3 195.44c-5.134-2.954-11.685-1.191-14.639 3.943-1.572 2.728-4.526 4.443-7.695 4.455h-0.024-0.048c-3.157-0.012-6.099-1.727-7.683-4.455-0.917-1.584-2.228-2.966-3.931-3.943-5.134-2.954-11.685-1.191-14.639 3.943-1.584 2.74-4.55 4.455-7.731 4.455s-6.135-1.715-7.719-4.455c-2.954-5.134-9.506-6.897-14.639-3.943-5.134 2.954-6.885 9.517-3.931 14.639 3.538 6.158 9.112 10.756 15.569 13.21v26.313c0 15.295 12.436 27.73 27.73 27.73s27.742-12.436 27.742-27.73v-26.313c6.468-2.442 12.031-7.052 15.581-13.21 2.954-5.122 1.191-11.685-3.943-14.639zm-33.079 54.162c0 3.466-2.823 6.289-6.301 6.289-3.466 0-6.289-2.823-6.289-6.289v-26.313c2.216-0.834 4.336-1.918 6.301-3.252 1.953 1.334 4.074 2.418 6.289 3.264v26.301z"/>
  <path d="m428.79 449.56h-0.953c1.549-6.111 2.347-12.424 2.347-18.773 0-17.391-6.027-34.401-16.95-47.897-8.731-10.756-20.262-18.94-33.15-23.645v-58.355c0-14.913-2.716-29.362-8.076-43.049v-0.012c11.078-19.19 16.927-41.036 16.843-63.739l-0.012-26.468v-0.357l0.012-0.25v-0.048l-0.524-128.13c-0.048-10.423-4.157-20.19-11.542-27.516-7.351-7.302-17.107-11.316-27.458-11.316h-0.167c-10.423 0.048-20.202 4.145-27.54 11.542l-31.816 32.078c-9.041-2.025-18.368-3.061-27.861-3.061h-0.536c-9.732 0.036-19.214 1.191-28.326 3.323l-32.126-31.852c-7.349-7.302-17.105-11.316-27.456-11.316h-0.167c-10.423 0.048-20.202 4.145-27.528 11.531-7.338 7.397-11.352 17.2-11.316 27.635l0.524 127.41v27.79c0.083 22.323 5.908 43.752 16.736 62.596-1.703 4.324-3.145 8.731-4.312 13.198s-2.073 9.005-2.716 13.603l-42.68-42.691c-2.239-2.239-5.265-3.49-8.433-3.49-3.157 0-6.182 1.251-8.422 3.49-40.857 40.869-40.857 107.36 0 148.22l13.567 13.579c-3.311 8.636-5.051 17.868-5.051 27.206 0 6.349 0.798 12.662 2.347 18.773h-0.953c-15.807 0-28.671 12.865-28.671 28.671v14.294c0 10.744 8.731 19.476 19.476 19.476h352.09c10.744 0 19.476-8.731 19.476-19.476v-14.293c-1e-3 -15.806-12.865-28.671-28.672-28.671zm-334.56-181.89 49.374 49.374v42.286c-12.555 4.622-23.823 12.555-32.436 22.954l-9.124-9.124c-28.719-28.72-31.327-73.805-7.814-105.49zm-3.978 220.51v-9.946c0-2.668 2.18-4.848 4.848-4.848h18.32c4.205 0 8.1-2.216 10.244-5.837 2.144-3.609 2.227-8.1 0.214-11.781-4.157-7.6-6.349-16.236-6.349-24.979 0-8.052 1.894-15.807 5.289-22.763 0.476-0.965 0.977-1.918 1.501-2.847v-0.012c4.574-8.064 11.221-14.878 19.285-19.595 0 0 0 88.468 0.024 102.61h-53.376zm248.29-459.86c5.896-5.944 15.533-5.98 21.477-0.083 2.871 2.847 4.467 6.659 4.491 10.709l0.226 54.043c-4.014-5.503-8.493-10.721-13.424-15.616-10.732-10.649-23.013-19.142-36.354-25.277l23.584-23.776zm-76.568 36.021h0.012c12.96 0.06 25.384 2.406 36.843 6.825-13.71 2.74-26.48 9.065-37.01 18.404-10.458-9.267-23.109-15.569-36.724-18.344 11.471-4.419 23.919-6.825 36.879-6.885zm-103.66-24.55c-0.012-4.062 1.549-7.874 4.407-10.756 2.859-2.883 6.659-4.467 10.709-4.491h0.06c4.038 0 7.826 1.56 10.697 4.407l23.871 23.68c-19.845 9.351-36.891 23.704-49.517 41.405l-0.227-54.245zm197.95 448.39h-32.34v-112.77c0-6.575-5.336-11.912-11.912-11.912s-11.912 5.336-11.912 11.912v112.77h-76.449v-112.77c0-6.575-5.336-11.912-11.912-11.912s-11.912 5.336-11.912 11.912v112.77h-32.364c-0.024-13.591-0.036-187.29-0.036-187.29 0-6.611 0.691-13.103 2.013-19.428 1.001 1.096 2.037 2.156 3.109 3.216 23.942 23.752 55.663 36.807 89.361 36.807h0.536c33.901-0.143 65.717-13.472 89.588-37.546 0.774-0.774 1.513-1.549 2.251-2.335 1.298 6.289 1.977 12.734 1.977 19.285v187.29zm8.768-293.2h-0.012c-0.226 56.557-46.205 102.45-102.67 102.68h-0.429c-56.652 0-102.86-45.979-103.08-102.68v-27.671c0.048-30.16 13.174-57.367 34.008-76.223l16.188-0.048h0.203c17.129 0 33.317 7.552 44.395 20.714 2.12 2.525 5.146 3.824 8.207 3.824 2.43 0 4.884-0.822 6.897-2.513 0.476-0.405 0.905-0.846 1.298-1.31 5.539-6.587 12.352-11.757 19.916-15.295 7.576-3.538 15.902-5.42 24.467-5.42l16.748 0.048c1.143 1.036 2.263 2.096 3.371 3.192 19.535 19.38 30.363 45.193 30.494 72.721v27.981zm68.61 293.2h-53.555v-102.73c15.831 9.184 26.277 26.396 26.277 45.336 0 8.743-2.192 17.379-6.349 24.979-2.013 3.681-1.93 8.159 0.214 11.781 2.144 3.621 6.039 5.837 10.244 5.837h18.32c2.668 0 4.848 2.18 4.848 4.848v9.946z"/>
  <path d="m220.18 142.45c1.584-1.306 2.848-2.985 3.66-4.902 0.195-0.462 0.355-0.941 0.496-1.429 0.327-1.131 0.512-2.323 0.512-3.559 0-1.772-0.359-3.46-1.008-4.995-0.325-0.767-0.722-1.497-1.183-2.179-0.691-1.024-1.527-1.942-2.477-2.726-0.634-0.523-1.318-0.986-2.045-1.381s-1.497-0.721-2.3-0.971c-1.205-0.375-2.487-0.577-3.816-0.577-1.327 0-2.606 0.202-3.81 0.577-0.803 0.25-1.571 0.576-2.298 0.971-2.542 1.382-4.566 3.6-5.701 6.286-0.649 1.535-1.008 3.223-1.008 4.995 0 3.98 1.817 7.538 4.665 9.889 0.633 0.523 1.317 0.985 2.044 1.38 1.453 0.789 3.075 1.306 4.798 1.481 0.431 0.044 0.868 0.066 1.31 0.066 1.329 0 2.61-0.202 3.816-0.576 0.804-0.25 1.573-0.576 2.3-0.971s1.412-0.856 2.045-1.379z"/>
  <path d="m256.52 175.58h10.649c6.587 0 11.912-5.325 11.912-11.912 0-6.575-5.325-11.912-11.912-11.912h-10.649c-6.587 0-11.912 5.336-11.912 11.912 0 6.588 5.325 11.912 11.912 11.912z"/>
  <path d="m212.02 119.74c-7.076 0-12.817 5.741-12.817 12.829 0 7.076 5.741 12.817 12.817 12.817 7.087 0 12.829-5.741 12.829-12.817 0-7.087-5.741-12.829-12.829-12.829z"/>
  <path d="m311.68 119.3c-7.076 0-12.817 5.741-12.817 12.817 0 7.087 5.741 12.829 12.817 12.829 7.087 0 12.829-5.741 12.829-12.829 0-7.076-5.741-12.817-12.829-12.817z"/>
  <path d="m267.17 151.76h-10.649c-6.587 0-11.912 5.336-11.912 11.912 0 6.587 5.325 11.912 11.912 11.912h10.649c6.587 0 11.912-5.325 11.912-11.912 0-6.576-5.325-11.912-11.912-11.912z"/>
  <path d="m301.3 195.44c-5.134-2.954-11.685-1.191-14.639 3.943-1.572 2.728-4.526 4.443-7.695 4.455h-0.024-0.048c-3.157-0.012-6.099-1.727-7.683-4.455-0.917-1.584-2.228-2.966-3.931-3.943-5.134-2.954-11.685-1.191-14.639 3.943-1.584 2.74-4.55 4.455-7.731 4.455s-6.135-1.715-7.719-4.455c-2.954-5.134-9.506-6.897-14.639-3.943-5.134 2.954-6.885 9.517-3.931 14.639 3.538 6.158 9.112 10.756 15.569 13.21v26.313c0 15.295 12.436 27.73 27.73 27.73s27.742-12.436 27.742-27.73v-26.313c6.468-2.442 12.031-7.052 15.581-13.21 2.954-5.122 1.191-11.685-3.943-14.639zm-33.079 54.162c0 3.466-2.823 6.289-6.301 6.289-3.466 0-6.289-2.823-6.289-6.289v-26.313c2.216-0.834 4.336-1.918 6.301-3.252 1.953 1.334 4.074 2.418 6.289 3.264v26.301z"/>
</svg>
