<svg version="1.1" xmlns="http://www.w3.org/2000/svg">
  <symbol id="arrow-to-left" viewBox="0 0 25 23" width="25" height="23">
    <path class="vector" fill="currentColor" style="fill: var(--color)" d="M11.3638 0.180029C11.546 0.259232 11.7114 0.375314 11.8507 0.521623C11.9903 0.667564 12.1011 0.840935 12.1767 1.03181C12.2523 1.22268 12.2912 1.4273 12.2912 1.63395C12.2912 1.8406 12.2523 2.04523 12.1767 2.2361C12.1011 2.42697 11.9903 2.60034 11.8507 2.74628L5.82303 9.06006H22.9737C23.398 9.06006 23.805 9.27077 24.105 9.64585C24.4051 10.0209 24.5737 10.5296 24.5737 11.0601C24.5737 11.5905 24.4051 12.0992 24.105 12.4743C23.805 12.8493 23.398 13.0601 22.9737 13.0601H5.82225L11.8507 19.3747C12.1323 19.6697 12.2904 20.0698 12.2904 20.487C12.2904 20.9042 12.1323 21.3043 11.8507 21.5993C11.5692 21.8943 11.1873 22.0601 10.7892 22.0601C10.391 22.0601 10.0092 21.8943 9.72767 21.5993L0.731688 12.1728C0.59206 12.0269 0.481281 11.8535 0.405695 11.6626C0.330111 11.4717 0.291203 11.2671 0.291203 11.0605C0.291203 10.8538 0.330111 10.6492 0.405695 10.4583C0.481281 10.2675 0.59206 10.0941 0.731688 9.94814L9.72767 0.521623C9.86694 0.375314 10.0324 0.259232 10.2146 0.180029C10.3967 0.100826 10.592 0.0600586 10.7892 0.0600586C10.9864 0.0600586 11.1817 0.100826 11.3638 0.180029Z"/>
  </symbol>
  <symbol id="arrow-to-right" viewBox="0 0 25 22" width="25" height="22">
    <path class="vector" fill="currentColor" style="fill: var(--color)" d="m13.569 0.11997c-0.1822 0.079203-0.3476 0.19528-0.4869 0.34159-0.1396 0.14594-0.2504 0.31931-0.326 0.51018s-0.1145 0.39549-0.1145 0.60214c0 0.20666 0.0389 0.41128 0.1145 0.60215s0.1864 0.36424 0.326 0.51018l6.0277 6.3138h-17.151c-0.42434 0-0.83131 0.21071-1.1314 0.58579-0.30006 0.37507-0.46863 0.88381-0.46863 1.4142s0.16857 1.0391 0.46863 1.4142c0.30006 0.3751 0.70703 0.5858 1.1314 0.5858h17.151l-6.0285 6.3146c-0.2815 0.295-0.4397 0.6951-0.4397 1.1123s0.1582 0.8174 0.4397 1.1124 0.6634 0.4607 1.0615 0.4607c0.3982 0 0.78-0.1657 1.0616-0.4607l8.9959-9.4266c0.1397-0.1459 0.2505-0.3193 0.326-0.5101 0.0756-0.1909 0.1145-0.3955 0.1145-0.6022 0-0.2066-0.0389-0.4113-0.1145-0.6021-0.0755-0.1909-0.1863-0.3643-0.326-0.51022l-8.9959-9.4265c-0.1393-0.14631-0.3048-0.26239-0.4869-0.34159-0.1822-0.079203-0.3774-0.11997-0.5747-0.11997-0.1972 0-0.3924 0.040768-0.5746 0.11997z"/>
  </symbol>
</svg>
