<svg version="1.1" xmlns="http://www.w3.org/2000/svg">
  <symbol id="arrow-to-right" viewBox="0 0 25 22" width="25" height="22">
    <path class="vector" fill="currentColor" style="fill: var(--color)" d="m13.569 0.11997c-0.1822 0.079203-0.3476 0.19528-0.4869 0.34159-0.1396 0.14594-0.2504 0.31931-0.326 0.51018s-0.1145 0.39549-0.1145 0.60214c0 0.20666 0.0389 0.41128 0.1145 0.60215s0.1864 0.36424 0.326 0.51018l6.0277 6.3138h-17.151c-0.42434 0-0.83131 0.21071-1.1314 0.58579-0.30006 0.37507-0.46863 0.88381-0.46863 1.4142s0.16857 1.0391 0.46863 1.4142c0.30006 0.3751 0.70703 0.5858 1.1314 0.5858h17.151l-6.0285 6.3146c-0.2815 0.295-0.4397 0.6951-0.4397 1.1123s0.1582 0.8174 0.4397 1.1124 0.6634 0.4607 1.0615 0.4607c0.3982 0 0.78-0.1657 1.0616-0.4607l8.9959-9.4266c0.1397-0.1459 0.2505-0.3193 0.326-0.5101 0.0756-0.1909 0.1145-0.3955 0.1145-0.6022 0-0.2066-0.0389-0.4113-0.1145-0.6021-0.0755-0.1909-0.1863-0.3643-0.326-0.51022l-8.9959-9.4265c-0.1393-0.14631-0.3048-0.26239-0.4869-0.34159-0.1822-0.079203-0.3774-0.11997-0.5747-0.11997-0.1972 0-0.3924 0.040768-0.5746 0.11997z"/>
  </symbol>
</svg>
